{
	"asset":{
		"generator":"Khronos glTF Blender I/O v5.0.21",
		"version":"2.0"
	},
	"scene":0,
	"scenes":[
		{
			"name":"Scene",
			"nodes":[
				0
			]
		}
	],
	"nodes":[
		{
			"mesh":0,
			"name":"A38_Window_WC_007_Mat_A38_Window_Wall_001_0.001",
			"scale":[
				6.835404064986506e-07,
				6.835404064986506e-07,
				6.835404064986506e-07
			]
		}
	],
	"materials":[
		{
			"doubleSided":true,
			"name":"Mat_A38_Window_Wall_001.004",
			"pbrMetallicRoughness":{
				"baseColorFactor":[
					0.9529410004615784,
					0.9529410004615784,
					0.9529410004615784,
					1
				],
				"metallicFactor":0,
				"roughnessFactor":0.8929713368415833
			}
		},
		{
			"doubleSided":true,
			"name":"Mat_A38_Window_Frame_001.004",
			"pbrMetallicRoughness":{
				"baseColorFactor":[
					0.756862998008728,
					0.756862998008728,
					0.756862998008728,
					1
				],
				"metallicFactor":0.38586127758026123,
				"roughnessFactor":0.8929713368415833
			}
		},
		{
			"doubleSided":true,
			"name":"Mat_A38_Window_Frame_002.004",
			"pbrMetallicRoughness":{
				"baseColorFactor":[
					0.1450980007648468,
					0.1450980007648468,
					0.1450980007648468,
					1
				],
				"metallicFactor":0.4468368887901306,
				"roughnessFactor":0.7604801654815674
			}
		},
		{
			"doubleSided":true,
			"name":"Mat_A38_Window_Handbar_001.004",
			"pbrMetallicRoughness":{
				"baseColorFactor":[
					0.5450980067253113,
					0.5450980067253113,
					0.5450980067253113,
					1
				],
				"metallicFactor":0,
				"roughnessFactor":0.8791684508323669
			}
		},
		{
			"alphaMode":"BLEND",
			"doubleSided":true,
			"name":"Mat_A38_Window_Noise_Glass_001.004",
			"pbrMetallicRoughness":{
				"baseColorFactor":[
					0.5882350206375122,
					0.6588240265846252,
					0.7058820128440857,
					0.699999988079071
				],
				"metallicFactor":0.7883002758026123,
				"roughnessFactor":0
			}
		},
		{
			"doubleSided":true,
			"name":"Mat_A38_Window_Plastic_001.004",
			"pbrMetallicRoughness":{
				"baseColorFactor":[
					0.7450979948043823,
					0.7450979948043823,
					0.7450979948043823,
					1
				],
				"metallicFactor":0,
				"roughnessFactor":0.8727207779884338
			}
		},
		{
			"doubleSided":true,
			"name":"Mat_A38_Window_Rubber_001.004",
			"pbrMetallicRoughness":{
				"baseColorFactor":[
					0.08627449721097946,
					0.08627449721097946,
					0.08627449721097946,
					1
				],
				"metallicFactor":0,
				"roughnessFactor":0.8812443017959595
			}
		}
	],
	"meshes":[
		{
			"name":"A38_Window_WC_007_Mat_A38_Window_Wall_001_0.004",
			"primitives":[
				{
					"attributes":{
						"POSITION":0,
						"NORMAL":1,
						"TEXCOORD_0":2
					},
					"indices":3,
					"material":0
				},
				{
					"attributes":{
						"POSITION":4,
						"NORMAL":5,
						"TEXCOORD_0":6
					},
					"indices":7,
					"material":1
				},
				{
					"attributes":{
						"POSITION":8,
						"NORMAL":9,
						"TEXCOORD_0":10
					},
					"indices":11,
					"material":2
				},
				{
					"attributes":{
						"POSITION":12,
						"NORMAL":13,
						"TEXCOORD_0":14
					},
					"indices":15,
					"material":3
				},
				{
					"attributes":{
						"POSITION":16,
						"NORMAL":17,
						"TEXCOORD_0":18
					},
					"indices":19,
					"material":4
				},
				{
					"attributes":{
						"POSITION":20,
						"NORMAL":21,
						"TEXCOORD_0":22
					},
					"indices":23,
					"material":5
				},
				{
					"attributes":{
						"POSITION":24,
						"NORMAL":25,
						"TEXCOORD_0":26
					},
					"indices":27,
					"material":6
				}
			]
		}
	],
	"accessors":[
		{
			"bufferView":0,
			"componentType":5126,
			"count":52,
			"max":[
				352558.28125,
				2194244.25,
				91760.8984375
			],
			"min":[
				-352558.25,
				-0.031385637819767,
				-106511.59375
			],
			"type":"VEC3"
		},
		{
			"bufferView":1,
			"componentType":5126,
			"count":52,
			"type":"VEC3"
		},
		{
			"bufferView":2,
			"componentType":5126,
			"count":52,
			"type":"VEC2"
		},
		{
			"bufferView":3,
			"componentType":5123,
			"count":96,
			"type":"SCALAR"
		},
		{
			"bufferView":4,
			"componentType":5126,
			"count":104,
			"max":[
				294568.125,
				2135619,
				57929.5859375
			],
			"min":[
				-294568.125,
				73642.03125,
				13743.7412109375
			],
			"type":"VEC3"
		},
		{
			"bufferView":5,
			"componentType":5126,
			"count":104,
			"type":"VEC3"
		},
		{
			"bufferView":6,
			"componentType":5126,
			"count":104,
			"type":"VEC2"
		},
		{
			"bufferView":7,
			"componentType":5123,
			"count":192,
			"type":"SCALAR"
		},
		{
			"bufferView":8,
			"componentType":5126,
			"count":92,
			"max":[
				338753.375,
				2179804.25,
				13744.37890625
			],
			"min":[
				-338753.375,
				29456.79296875,
				-30441.501953125
			],
			"type":"VEC3"
		},
		{
			"bufferView":9,
			"componentType":5126,
			"count":92,
			"type":"VEC3"
		},
		{
			"bufferView":10,
			"componentType":5126,
			"count":92,
			"type":"VEC2"
		},
		{
			"bufferView":11,
			"componentType":5123,
			"count":204,
			"type":"SCALAR"
		},
		{
			"bufferView":12,
			"componentType":5126,
			"count":593,
			"max":[
				-258190.046875,
				901709.625,
				137607.890625
			],
			"min":[
				-287646.90625,
				682111.1875,
				80021.9453125
			],
			"type":"VEC3"
		},
		{
			"bufferView":13,
			"componentType":5126,
			"count":593,
			"type":"VEC3"
		},
		{
			"bufferView":14,
			"componentType":5126,
			"count":593,
			"type":"VEC2"
		},
		{
			"bufferView":15,
			"componentType":5123,
			"count":3156,
			"type":"SCALAR"
		},
		{
			"bufferView":16,
			"componentType":5126,
			"count":24,
			"max":[
				279839.75,
				1502297.625,
				43201.16796875
			],
			"min":[
				-279839.75,
				117827.265625,
				28472.3359375
			],
			"type":"VEC3"
		},
		{
			"bufferView":17,
			"componentType":5126,
			"count":24,
			"type":"VEC3"
		},
		{
			"bufferView":18,
			"componentType":5126,
			"count":24,
			"type":"VEC2"
		},
		{
			"bufferView":19,
			"componentType":5123,
			"count":36,
			"type":"SCALAR"
		},
		{
			"bufferView":20,
			"componentType":5126,
			"count":254,
			"max":[
				315188.0625,
				1465476.625,
				80021.953125
			],
			"min":[
				-293343.28125,
				154648.296875,
				37309.48828125
			],
			"type":"VEC3"
		},
		{
			"bufferView":21,
			"componentType":5126,
			"count":254,
			"type":"VEC3"
		},
		{
			"bufferView":22,
			"componentType":5126,
			"count":254,
			"type":"VEC2"
		},
		{
			"bufferView":23,
			"componentType":5123,
			"count":432,
			"type":"SCALAR"
		},
		{
			"bufferView":24,
			"componentType":5126,
			"count":96,
			"max":[
				250382.921875,
				2091434,
				49644.84765625
			],
			"min":[
				-250382.921875,
				117827.265625,
				22028.482421875
			],
			"type":"VEC3"
		},
		{
			"bufferView":25,
			"componentType":5126,
			"count":96,
			"type":"VEC3"
		},
		{
			"bufferView":26,
			"componentType":5126,
			"count":96,
			"type":"VEC2"
		},
		{
			"bufferView":27,
			"componentType":5123,
			"count":144,
			"type":"SCALAR"
		}
	],
	"bufferViews":[
		{
			"buffer":0,
			"byteLength":624,
			"byteOffset":0,
			"target":34962
		},
		{
			"buffer":0,
			"byteLength":624,
			"byteOffset":624,
			"target":34962
		},
		{
			"buffer":0,
			"byteLength":416,
			"byteOffset":1248,
			"target":34962
		},
		{
			"buffer":0,
			"byteLength":192,
			"byteOffset":1664,
			"target":34963
		},
		{
			"buffer":0,
			"byteLength":1248,
			"byteOffset":1856,
			"target":34962
		},
		{
			"buffer":0,
			"byteLength":1248,
			"byteOffset":3104,
			"target":34962
		},
		{
			"buffer":0,
			"byteLength":832,
			"byteOffset":4352,
			"target":34962
		},
		{
			"buffer":0,
			"byteLength":384,
			"byteOffset":5184,
			"target":34963
		},
		{
			"buffer":0,
			"byteLength":1104,
			"byteOffset":5568,
			"target":34962
		},
		{
			"buffer":0,
			"byteLength":1104,
			"byteOffset":6672,
			"target":34962
		},
		{
			"buffer":0,
			"byteLength":736,
			"byteOffset":7776,
			"target":34962
		},
		{
			"buffer":0,
			"byteLength":408,
			"byteOffset":8512,
			"target":34963
		},
		{
			"buffer":0,
			"byteLength":7116,
			"byteOffset":8920,
			"target":34962
		},
		{
			"buffer":0,
			"byteLength":7116,
			"byteOffset":16036,
			"target":34962
		},
		{
			"buffer":0,
			"byteLength":4744,
			"byteOffset":23152,
			"target":34962
		},
		{
			"buffer":0,
			"byteLength":6312,
			"byteOffset":27896,
			"target":34963
		},
		{
			"buffer":0,
			"byteLength":288,
			"byteOffset":34208,
			"target":34962
		},
		{
			"buffer":0,
			"byteLength":288,
			"byteOffset":34496,
			"target":34962
		},
		{
			"buffer":0,
			"byteLength":192,
			"byteOffset":34784,
			"target":34962
		},
		{
			"buffer":0,
			"byteLength":72,
			"byteOffset":34976,
			"target":34963
		},
		{
			"buffer":0,
			"byteLength":3048,
			"byteOffset":35048,
			"target":34962
		},
		{
			"buffer":0,
			"byteLength":3048,
			"byteOffset":38096,
			"target":34962
		},
		{
			"buffer":0,
			"byteLength":2032,
			"byteOffset":41144,
			"target":34962
		},
		{
			"buffer":0,
			"byteLength":864,
			"byteOffset":43176,
			"target":34963
		},
		{
			"buffer":0,
			"byteLength":1152,
			"byteOffset":44040,
			"target":34962
		},
		{
			"buffer":0,
			"byteLength":1152,
			"byteOffset":45192,
			"target":34962
		},
		{
			"buffer":0,
			"byteLength":768,
			"byteOffset":46344,
			"target":34962
		},
		{
			"buffer":0,
			"byteLength":288,
			"byteOffset":47112,
			"target":34963
		}
	],
	"buffers":[
		{
			"byteLength":47400,
			"uri":"scene.bin"
		}
	]
}
