{
	"asset":{
		"generator":"Khronos glTF Blender I/O v5.0.21",
		"version":"2.0"
	},
	"scene":0,
	"scenes":[
		{
			"name":"Scene",
			"nodes":[
				3,
				11
			]
		}
	],
	"nodes":[
		{
			"name":"A38_Entrance_Stairs_001"
		},
		{
			"children":[
				0
			],
			"name":"RootNode"
		},
		{
			"children":[
				1
			],
			"name":"9e372f30a8974bb0b4b83728832ed115.fbx"
		},
		{
			"children":[
				2
			],
			"name":"Sketchfab_model"
		},
		{
			"mesh":0,
			"name":"A38_Window_WC_007_Mat_A38_Window_Frame_001_0"
		},
		{
			"mesh":1,
			"name":"A38_Window_WC_007_Mat_A38_Window_Frame_002_0"
		},
		{
			"mesh":2,
			"name":"A38_Window_WC_007_Mat_A38_Window_Handbar_001_0"
		},
		{
			"mesh":3,
			"name":"A38_Window_WC_007_Mat_A38_Window_Noise_Glass_001_0"
		},
		{
			"mesh":4,
			"name":"A38_Window_WC_007_Mat_A38_Window_Plastic_001_0"
		},
		{
			"mesh":5,
			"name":"A38_Window_WC_007_Mat_A38_Window_Rubber_001_0"
		},
		{
			"mesh":6,
			"name":"A38_Window_WC_007_Mat_A38_Window_Wall_001_0"
		},
		{
			"children":[
				4,
				5,
				6,
				7,
				8,
				9,
				10
			],
			"name":"A38_Window_WC_007"
		}
	],
	"materials":[
		{
			"doubleSided":true,
			"name":"Mat_A38_Window_Frame_001.001",
			"pbrMetallicRoughness":{
				"baseColorFactor":[
					0.756862998008728,
					0.756862998008728,
					0.756862998008728,
					1
				],
				"metallicFactor":0.38586127758026123,
				"roughnessFactor":0.8929713368415833
			}
		},
		{
			"doubleSided":true,
			"name":"Mat_A38_Window_Frame_002.001",
			"pbrMetallicRoughness":{
				"baseColorFactor":[
					0.1450980007648468,
					0.1450980007648468,
					0.1450980007648468,
					1
				],
				"metallicFactor":0.4468368887901306,
				"roughnessFactor":0.7604801654815674
			}
		},
		{
			"doubleSided":true,
			"name":"Mat_A38_Window_Handbar_001.001",
			"pbrMetallicRoughness":{
				"baseColorFactor":[
					0.5450980067253113,
					0.5450980067253113,
					0.5450980067253113,
					1
				],
				"metallicFactor":0,
				"roughnessFactor":0.8791684508323669
			}
		},
		{
			"alphaMode":"BLEND",
			"doubleSided":true,
			"name":"Mat_A38_Window_Noise_Glass_001.001",
			"pbrMetallicRoughness":{
				"baseColorFactor":[
					0.5882350206375122,
					0.6588240265846252,
					0.7058820128440857,
					0.699999988079071
				],
				"metallicFactor":0.7883002758026123,
				"roughnessFactor":0
			}
		},
		{
			"doubleSided":true,
			"name":"Mat_A38_Window_Plastic_001.001",
			"pbrMetallicRoughness":{
				"baseColorFactor":[
					0.7450979948043823,
					0.7450979948043823,
					0.7450979948043823,
					1
				],
				"metallicFactor":0,
				"roughnessFactor":0.8727207779884338
			}
		},
		{
			"doubleSided":true,
			"name":"Mat_A38_Window_Rubber_001.001",
			"pbrMetallicRoughness":{
				"baseColorFactor":[
					0.08627449721097946,
					0.08627449721097946,
					0.08627449721097946,
					1
				],
				"metallicFactor":0,
				"roughnessFactor":0.8812443017959595
			}
		},
		{
			"doubleSided":true,
			"name":"Mat_A38_Window_Wall_001.001",
			"pbrMetallicRoughness":{
				"baseColorFactor":[
					0.9529410004615784,
					0.9529410004615784,
					0.9529410004615784,
					1
				],
				"metallicFactor":0,
				"roughnessFactor":0.8929713368415833
			}
		}
	],
	"meshes":[
		{
			"name":"A38_Window_WC_007_Mat_A38_Window_Frame_001_0.001",
			"primitives":[
				{
					"attributes":{
						"POSITION":0,
						"NORMAL":1,
						"TEXCOORD_0":2
					},
					"indices":3,
					"material":0
				}
			]
		},
		{
			"name":"A38_Window_WC_007_Mat_A38_Window_Frame_002_0.001",
			"primitives":[
				{
					"attributes":{
						"POSITION":4,
						"NORMAL":5,
						"TEXCOORD_0":6
					},
					"indices":7,
					"material":1
				}
			]
		},
		{
			"name":"A38_Window_WC_007_Mat_A38_Window_Handbar_001_0.001",
			"primitives":[
				{
					"attributes":{
						"POSITION":8,
						"NORMAL":9,
						"TEXCOORD_0":10
					},
					"indices":11,
					"material":2
				}
			]
		},
		{
			"name":"A38_Window_WC_007_Mat_A38_Window_Noise_Glass_001_0.001",
			"primitives":[
				{
					"attributes":{
						"POSITION":12,
						"NORMAL":13,
						"TEXCOORD_0":14
					},
					"indices":15,
					"material":3
				}
			]
		},
		{
			"name":"A38_Window_WC_007_Mat_A38_Window_Plastic_001_0.001",
			"primitives":[
				{
					"attributes":{
						"POSITION":16,
						"NORMAL":17,
						"TEXCOORD_0":18
					},
					"indices":19,
					"material":4
				}
			]
		},
		{
			"name":"A38_Window_WC_007_Mat_A38_Window_Rubber_001_0.001",
			"primitives":[
				{
					"attributes":{
						"POSITION":20,
						"NORMAL":21,
						"TEXCOORD_0":22
					},
					"indices":23,
					"material":5
				}
			]
		},
		{
			"name":"A38_Window_WC_007_Mat_A38_Window_Wall_001_0.001",
			"primitives":[
				{
					"attributes":{
						"POSITION":24,
						"NORMAL":25,
						"TEXCOORD_0":26
					},
					"indices":27,
					"material":6
				}
			]
		}
	],
	"accessors":[
		{
			"bufferView":0,
			"componentType":5126,
			"count":104,
			"max":[
				294.5681457519531,
				2135.619140625,
				57.929588317871094
			],
			"min":[
				-294.5681457519531,
				73.64203643798828,
				13.743741989135742
			],
			"type":"VEC3"
		},
		{
			"bufferView":1,
			"componentType":5126,
			"count":104,
			"type":"VEC3"
		},
		{
			"bufferView":2,
			"componentType":5126,
			"count":104,
			"type":"VEC2"
		},
		{
			"bufferView":3,
			"componentType":5123,
			"count":192,
			"type":"SCALAR"
		},
		{
			"bufferView":4,
			"componentType":5126,
			"count":92,
			"max":[
				338.7533874511719,
				2179.804443359375,
				13.744379997253418
			],
			"min":[
				-338.7533874511719,
				29.45679473876953,
				-30.441503524780273
			],
			"type":"VEC3"
		},
		{
			"bufferView":5,
			"componentType":5126,
			"count":92,
			"type":"VEC3"
		},
		{
			"bufferView":6,
			"componentType":5126,
			"count":92,
			"type":"VEC2"
		},
		{
			"bufferView":7,
			"componentType":5123,
			"count":204,
			"type":"SCALAR"
		},
		{
			"bufferView":8,
			"componentType":5126,
			"count":593,
			"max":[
				-258.1900634765625,
				901.7096557617188,
				137.60789489746094
			],
			"min":[
				-287.64691162109375,
				682.1112060546875,
				80.0219497680664
			],
			"type":"VEC3"
		},
		{
			"bufferView":9,
			"componentType":5126,
			"count":593,
			"type":"VEC3"
		},
		{
			"bufferView":10,
			"componentType":5126,
			"count":593,
			"type":"VEC2"
		},
		{
			"bufferView":11,
			"componentType":5123,
			"count":3156,
			"type":"SCALAR"
		},
		{
			"bufferView":12,
			"componentType":5126,
			"count":24,
			"max":[
				279.8397521972656,
				1502.2977294921875,
				43.201171875
			],
			"min":[
				-279.8397521972656,
				117.8272705078125,
				28.47233772277832
			],
			"type":"VEC3"
		},
		{
			"bufferView":13,
			"componentType":5126,
			"count":24,
			"type":"VEC3"
		},
		{
			"bufferView":14,
			"componentType":5126,
			"count":24,
			"type":"VEC2"
		},
		{
			"bufferView":15,
			"componentType":5123,
			"count":36,
			"type":"SCALAR"
		},
		{
			"bufferView":16,
			"componentType":5126,
			"count":254,
			"max":[
				315.1880798339844,
				1465.4766845703125,
				80.02195739746094
			],
			"min":[
				-293.3432922363281,
				154.64830017089844,
				37.30949020385742
			],
			"type":"VEC3"
		},
		{
			"bufferView":17,
			"componentType":5126,
			"count":254,
			"type":"VEC3"
		},
		{
			"bufferView":18,
			"componentType":5126,
			"count":254,
			"type":"VEC2"
		},
		{
			"bufferView":19,
			"componentType":5123,
			"count":432,
			"type":"SCALAR"
		},
		{
			"bufferView":20,
			"componentType":5126,
			"count":96,
			"max":[
				250.3829345703125,
				2091.43408203125,
				49.64485168457031
			],
			"min":[
				-250.3829345703125,
				117.8272705078125,
				22.028484344482422
			],
			"type":"VEC3"
		},
		{
			"bufferView":21,
			"componentType":5126,
			"count":96,
			"type":"VEC3"
		},
		{
			"bufferView":22,
			"componentType":5126,
			"count":96,
			"type":"VEC2"
		},
		{
			"bufferView":23,
			"componentType":5123,
			"count":144,
			"type":"SCALAR"
		},
		{
			"bufferView":24,
			"componentType":5126,
			"count":52,
			"max":[
				352.55828857421875,
				2194.244384765625,
				91.76090240478516
			],
			"min":[
				-352.5582580566406,
				-3.138563988613896e-05,
				-106.5115966796875
			],
			"type":"VEC3"
		},
		{
			"bufferView":25,
			"componentType":5126,
			"count":52,
			"type":"VEC3"
		},
		{
			"bufferView":26,
			"componentType":5126,
			"count":52,
			"type":"VEC2"
		},
		{
			"bufferView":27,
			"componentType":5123,
			"count":96,
			"type":"SCALAR"
		}
	],
	"bufferViews":[
		{
			"buffer":0,
			"byteLength":1248,
			"byteOffset":0,
			"target":34962
		},
		{
			"buffer":0,
			"byteLength":1248,
			"byteOffset":1248,
			"target":34962
		},
		{
			"buffer":0,
			"byteLength":832,
			"byteOffset":2496,
			"target":34962
		},
		{
			"buffer":0,
			"byteLength":384,
			"byteOffset":3328,
			"target":34963
		},
		{
			"buffer":0,
			"byteLength":1104,
			"byteOffset":3712,
			"target":34962
		},
		{
			"buffer":0,
			"byteLength":1104,
			"byteOffset":4816,
			"target":34962
		},
		{
			"buffer":0,
			"byteLength":736,
			"byteOffset":5920,
			"target":34962
		},
		{
			"buffer":0,
			"byteLength":408,
			"byteOffset":6656,
			"target":34963
		},
		{
			"buffer":0,
			"byteLength":7116,
			"byteOffset":7064,
			"target":34962
		},
		{
			"buffer":0,
			"byteLength":7116,
			"byteOffset":14180,
			"target":34962
		},
		{
			"buffer":0,
			"byteLength":4744,
			"byteOffset":21296,
			"target":34962
		},
		{
			"buffer":0,
			"byteLength":6312,
			"byteOffset":26040,
			"target":34963
		},
		{
			"buffer":0,
			"byteLength":288,
			"byteOffset":32352,
			"target":34962
		},
		{
			"buffer":0,
			"byteLength":288,
			"byteOffset":32640,
			"target":34962
		},
		{
			"buffer":0,
			"byteLength":192,
			"byteOffset":32928,
			"target":34962
		},
		{
			"buffer":0,
			"byteLength":72,
			"byteOffset":33120,
			"target":34963
		},
		{
			"buffer":0,
			"byteLength":3048,
			"byteOffset":33192,
			"target":34962
		},
		{
			"buffer":0,
			"byteLength":3048,
			"byteOffset":36240,
			"target":34962
		},
		{
			"buffer":0,
			"byteLength":2032,
			"byteOffset":39288,
			"target":34962
		},
		{
			"buffer":0,
			"byteLength":864,
			"byteOffset":41320,
			"target":34963
		},
		{
			"buffer":0,
			"byteLength":1152,
			"byteOffset":42184,
			"target":34962
		},
		{
			"buffer":0,
			"byteLength":1152,
			"byteOffset":43336,
			"target":34962
		},
		{
			"buffer":0,
			"byteLength":768,
			"byteOffset":44488,
			"target":34962
		},
		{
			"buffer":0,
			"byteLength":288,
			"byteOffset":45256,
			"target":34963
		},
		{
			"buffer":0,
			"byteLength":624,
			"byteOffset":45544,
			"target":34962
		},
		{
			"buffer":0,
			"byteLength":624,
			"byteOffset":46168,
			"target":34962
		},
		{
			"buffer":0,
			"byteLength":416,
			"byteOffset":46792,
			"target":34962
		},
		{
			"buffer":0,
			"byteLength":192,
			"byteOffset":47208,
			"target":34963
		}
	],
	"buffers":[
		{
			"byteLength":47400,
			"uri":"single_vertical_window.bin"
		}
	]
}
