{
	"asset":{
		"generator":"Khronos glTF Blender I/O v5.0.21",
		"version":"2.0"
	},
	"scene":0,
	"scenes":[
		{
			"name":"Scene",
			"nodes":[
				0
			]
		}
	],
	"nodes":[
		{
			"mesh":0,
			"name":"Object_18.002",
			"rotation":[
				0,
				-0.7071066498756409,
				0,
				0.70710688829422
			],
			"scale":[
				0.001000000280328095,
				0.001000000280328095,
				0.0010000003967434168
			]
		}
	],
	"materials":[
		{
			"doubleSided":true,
			"name":"fusta_beta",
			"normalTexture":{
				"index":0
			},
			"pbrMetallicRoughness":{
				"baseColorTexture":{
					"index":1
				},
				"metallicFactor":0,
				"roughnessFactor":0.20000000298023224
			}
		},
		{
			"doubleSided":true,
			"name":"interior_lamas",
			"pbrMetallicRoughness":{
				"baseColorFactor":[
					0.001036809990182519,
					0.001036809990182519,
					0.001036809990182519,
					1
				],
				"metallicFactor":0,
				"roughnessFactor":0.29341399669647217
			}
		},
		{
			"doubleSided":true,
			"name":"alumini",
			"pbrMetallicRoughness":{
				"baseColorFactor":[
					0.34238401055336,
					0.22746700048446655,
					0.07767929881811142,
					1
				],
				"roughnessFactor":0.05118110030889511
			}
		}
	],
	"meshes":[
		{
			"name":"Object_8.002",
			"primitives":[
				{
					"attributes":{
						"POSITION":0,
						"NORMAL":1,
						"TEXCOORD_0":2,
						"TEXCOORD_1":3
					},
					"indices":4,
					"material":0
				},
				{
					"attributes":{
						"POSITION":5,
						"NORMAL":6,
						"TEXCOORD_0":7,
						"TEXCOORD_1":8
					},
					"indices":9,
					"material":1
				},
				{
					"attributes":{
						"POSITION":10,
						"NORMAL":11,
						"TEXCOORD_0":12,
						"TEXCOORD_1":13
					},
					"indices":14,
					"material":2
				}
			]
		}
	],
	"textures":[
		{
			"sampler":0,
			"source":0
		},
		{
			"sampler":0,
			"source":1
		}
	],
	"images":[
		{
			"mimeType":"image/png",
			"name":"fusta_beta_normal",
			"uri":"fusta_beta_normal.png"
		},
		{
			"mimeType":"image/png",
			"name":"fusta_beta_baseColor",
			"uri":"fusta_beta_baseColor.png"
		}
	],
	"accessors":[
		{
			"bufferView":0,
			"componentType":5126,
			"count":20605,
			"max":[
				243.5000457763672,
				618.3783569335938,
				899.9999389648438
			],
			"min":[
				-224.9999237060547,
				149.3784637451172,
				-899.9999389648438
			],
			"type":"VEC3"
		},
		{
			"bufferView":1,
			"componentType":5126,
			"count":20605,
			"type":"VEC3"
		},
		{
			"bufferView":2,
			"componentType":5126,
			"count":20605,
			"type":"VEC2"
		},
		{
			"bufferView":3,
			"componentType":5126,
			"count":20605,
			"type":"VEC2"
		},
		{
			"bufferView":4,
			"componentType":5123,
			"count":90648,
			"type":"SCALAR"
		},
		{
			"bufferView":5,
			"componentType":5126,
			"count":10791,
			"max":[
				238.67335510253906,
				596.5859375,
				859.703369140625
			],
			"min":[
				-216.703369140625,
				7.404296875,
				-859.7033081054688
			],
			"type":"VEC3"
		},
		{
			"bufferView":6,
			"componentType":5126,
			"count":10791,
			"type":"VEC3"
		},
		{
			"bufferView":7,
			"componentType":5126,
			"count":10791,
			"type":"VEC2"
		},
		{
			"bufferView":8,
			"componentType":5126,
			"count":10791,
			"type":"VEC2"
		},
		{
			"bufferView":9,
			"componentType":5123,
			"count":36264,
			"type":"SCALAR"
		},
		{
			"bufferView":10,
			"componentType":5126,
			"count":8303,
			"max":[
				263.16265869140625,
				399.3784484863281,
				857.3296508789062
			],
			"min":[
				-214.32968139648438,
				-0.621551513671875,
				-857.3296508789062
			],
			"type":"VEC3"
		},
		{
			"bufferView":11,
			"componentType":5126,
			"count":8303,
			"type":"VEC3"
		},
		{
			"bufferView":12,
			"componentType":5126,
			"count":8303,
			"type":"VEC2"
		},
		{
			"bufferView":13,
			"componentType":5126,
			"count":8303,
			"type":"VEC2"
		},
		{
			"bufferView":14,
			"componentType":5123,
			"count":21456,
			"type":"SCALAR"
		}
	],
	"bufferViews":[
		{
			"buffer":0,
			"byteLength":247260,
			"byteOffset":0,
			"target":34962
		},
		{
			"buffer":0,
			"byteLength":247260,
			"byteOffset":247260,
			"target":34962
		},
		{
			"buffer":0,
			"byteLength":164840,
			"byteOffset":494520,
			"target":34962
		},
		{
			"buffer":0,
			"byteLength":164840,
			"byteOffset":659360,
			"target":34962
		},
		{
			"buffer":0,
			"byteLength":181296,
			"byteOffset":824200,
			"target":34963
		},
		{
			"buffer":0,
			"byteLength":129492,
			"byteOffset":1005496,
			"target":34962
		},
		{
			"buffer":0,
			"byteLength":129492,
			"byteOffset":1134988,
			"target":34962
		},
		{
			"buffer":0,
			"byteLength":86328,
			"byteOffset":1264480,
			"target":34962
		},
		{
			"buffer":0,
			"byteLength":86328,
			"byteOffset":1350808,
			"target":34962
		},
		{
			"buffer":0,
			"byteLength":72528,
			"byteOffset":1437136,
			"target":34963
		},
		{
			"buffer":0,
			"byteLength":99636,
			"byteOffset":1509664,
			"target":34962
		},
		{
			"buffer":0,
			"byteLength":99636,
			"byteOffset":1609300,
			"target":34962
		},
		{
			"buffer":0,
			"byteLength":66424,
			"byteOffset":1708936,
			"target":34962
		},
		{
			"buffer":0,
			"byteLength":66424,
			"byteOffset":1775360,
			"target":34962
		},
		{
			"buffer":0,
			"byteLength":42912,
			"byteOffset":1841784,
			"target":34963
		}
	],
	"samplers":[
		{
			"magFilter":9729,
			"minFilter":9987
		}
	],
	"buffers":[
		{
			"byteLength":1884696,
			"uri":"scene.bin"
		}
	]
}
