{
  "accessors": [
    {
      "bufferView": 2,
      "componentType": 5126,
      "count": 640,
      "max": [
        0.2840558886528015,
        1.3000000715255737,
        5.300000190734863
      ],
      "min": [
        -0.15133094787597656,
        -1.3000000715255737,
        0.0
      ],
      "type": "VEC3"
    },
    {
      "bufferView": 2,
      "byteOffset": 7680,
      "componentType": 5126,
      "count": 640,
      "max": [
        1.0,
        1.0,
        1.0
      ],
      "min": [
        -1.0,
        -1.0,
        -1.0
      ],
      "type": "VEC3"
    },
    {
      "bufferView": 3,
      "componentType": 5126,
      "count": 640,
      "max": [
        1.0,
        1.0,
        1.0,
        1.0
      ],
      "min": [
        -1.0,
        -1.0,
        -1.0,
        -1.0
      ],
      "type": "VEC4"
    },
    {
      "bufferView": 1,
      "componentType": 5126,
      "count": 640,
      "max": [
        0.9958515167236328,
        0.9961190223693848
      ],
      "min": [
        0.003881096839904785,
        0.0038809776306152344
      ],
      "type": "VEC2"
    },
    {
      "bufferView": 1,
      "byteOffset": 5120,
      "componentType": 5126,
      "count": 640,
      "max": [
        0.9958515167236328,
        0.9961190223693848
      ],
      "min": [
        0.003881096839904785,
        0.0038809776306152344
      ],
      "type": "VEC2"
    },
    {
      "bufferView": 1,
      "byteOffset": 10240,
      "componentType": 5126,
      "count": 640,
      "max": [
        0.9958515167236328,
        0.9961190223693848
      ],
      "min": [
        0.003881096839904785,
        0.0038809776306152344
      ],
      "type": "VEC2"
    },
    {
      "bufferView": 0,
      "componentType": 5125,
      "count": 1476,
      "type": "SCALAR"
    },
    {
      "bufferView": 2,
      "byteOffset": 15360,
      "componentType": 5126,
      "count": 1786,
      "max": [
        0.38975802063941956,
        2.048954963684082,
        -0.30600404739379883
      ],
      "min": [
        -0.15136167407035828,
        -0.025473356246948242,
        -5.299989700317383
      ],
      "type": "VEC3"
    },
    {
      "bufferView": 2,
      "byteOffset": 36792,
      "componentType": 5126,
      "count": 1786,
      "max": [
        1.0,
        1.0,
        1.0
      ],
      "min": [
        -1.0,
        -1.0,
        -1.0
      ],
      "type": "VEC3"
    },
    {
      "bufferView": 3,
      "byteOffset": 10240,
      "componentType": 5126,
      "count": 1786,
      "max": [
        1.0,
        1.0,
        0.9999709725379944,
        1.0
      ],
      "min": [
        -1.0,
        -1.0,
        -1.0,
        -1.0
      ],
      "type": "VEC4"
    },
    {
      "bufferView": 1,
      "byteOffset": 15360,
      "componentType": 5126,
      "count": 1786,
      "max": [
        0.9868626594543457,
        0.9895977973937988
      ],
      "min": [
        0.003881096839904785,
        0.0038809776306152344
      ],
      "type": "VEC2"
    },
    {
      "bufferView": 1,
      "byteOffset": 29648,
      "componentType": 5126,
      "count": 1786,
      "max": [
        0.9868626594543457,
        0.9895977973937988
      ],
      "min": [
        0.003881096839904785,
        0.0038809776306152344
      ],
      "type": "VEC2"
    },
    {
      "bufferView": 1,
      "byteOffset": 43936,
      "componentType": 5126,
      "count": 1786,
      "max": [
        0.9868626594543457,
        0.9895977973937988
      ],
      "min": [
        0.003881096839904785,
        0.0038809776306152344
      ],
      "type": "VEC2"
    },
    {
      "bufferView": 0,
      "byteOffset": 5904,
      "componentType": 5125,
      "count": 6150,
      "type": "SCALAR"
    },
    {
      "bufferView": 2,
      "byteOffset": 58224,
      "componentType": 5126,
      "count": 640,
      "max": [
        0.2840558886528015,
        1.3000000715255737,
        5.300000190734863
      ],
      "min": [
        -0.15133094787597656,
        -1.3000000715255737,
        0.0
      ],
      "type": "VEC3"
    },
    {
      "bufferView": 2,
      "byteOffset": 65904,
      "componentType": 5126,
      "count": 640,
      "max": [
        1.0,
        1.0,
        1.0
      ],
      "min": [
        -1.0,
        -1.0,
        -1.0
      ],
      "type": "VEC3"
    },
    {
      "bufferView": 3,
      "byteOffset": 38816,
      "componentType": 5126,
      "count": 640,
      "max": [
        1.0,
        1.0,
        1.0,
        1.0
      ],
      "min": [
        -1.0,
        -1.0,
        -1.0,
        -1.0
      ],
      "type": "VEC4"
    },
    {
      "bufferView": 1,
      "byteOffset": 58224,
      "componentType": 5126,
      "count": 640,
      "max": [
        0.9958515167236328,
        0.9961190223693848
      ],
      "min": [
        0.003881096839904785,
        0.0038809776306152344
      ],
      "type": "VEC2"
    },
    {
      "bufferView": 1,
      "byteOffset": 63344,
      "componentType": 5126,
      "count": 640,
      "max": [
        0.9958515167236328,
        0.9961190223693848
      ],
      "min": [
        0.003881096839904785,
        0.0038809776306152344
      ],
      "type": "VEC2"
    },
    {
      "bufferView": 1,
      "byteOffset": 68464,
      "componentType": 5126,
      "count": 640,
      "max": [
        0.9958515167236328,
        0.9961190223693848
      ],
      "min": [
        0.003881096839904785,
        0.0038809776306152344
      ],
      "type": "VEC2"
    },
    {
      "bufferView": 0,
      "byteOffset": 30504,
      "componentType": 5125,
      "count": 1476,
      "type": "SCALAR"
    },
    {
      "bufferView": 2,
      "byteOffset": 73584,
      "componentType": 5126,
      "count": 1786,
      "max": [
        0.38975802063941956,
        2.048954963684082,
        -0.30600404739379883
      ],
      "min": [
        -0.15136167407035828,
        -0.025473356246948242,
        -5.299989700317383
      ],
      "type": "VEC3"
    },
    {
      "bufferView": 2,
      "byteOffset": 95016,
      "componentType": 5126,
      "count": 1786,
      "max": [
        1.0,
        1.0,
        1.0
      ],
      "min": [
        -1.0,
        -1.0,
        -1.0
      ],
      "type": "VEC3"
    },
    {
      "bufferView": 3,
      "byteOffset": 49056,
      "componentType": 5126,
      "count": 1786,
      "max": [
        1.0,
        1.0,
        0.9999709725379944,
        1.0
      ],
      "min": [
        -1.0,
        -1.0,
        -1.0,
        -1.0
      ],
      "type": "VEC4"
    },
    {
      "bufferView": 1,
      "byteOffset": 73584,
      "componentType": 5126,
      "count": 1786,
      "max": [
        0.9868626594543457,
        0.9895977973937988
      ],
      "min": [
        0.003881096839904785,
        0.0038809776306152344
      ],
      "type": "VEC2"
    },
    {
      "bufferView": 1,
      "byteOffset": 87872,
      "componentType": 5126,
      "count": 1786,
      "max": [
        0.9868626594543457,
        0.9895977973937988
      ],
      "min": [
        0.003881096839904785,
        0.0038809776306152344
      ],
      "type": "VEC2"
    },
    {
      "bufferView": 1,
      "byteOffset": 102160,
      "componentType": 5126,
      "count": 1786,
      "max": [
        0.9868626594543457,
        0.9895977973937988
      ],
      "min": [
        0.003881096839904785,
        0.0038809776306152344
      ],
      "type": "VEC2"
    },
    {
      "bufferView": 0,
      "byteOffset": 36408,
      "componentType": 5125,
      "count": 6150,
      "type": "SCALAR"
    },
    {
      "bufferView": 2,
      "byteOffset": 116448,
      "componentType": 5126,
      "count": 2661,
      "max": [
        0.2840558886528015,
        1.3000000715255737,
        5.300000190734863
      ],
      "min": [
        -1.8488191366195679,
        -1.3000000715255737,
        0.0
      ],
      "type": "VEC3"
    },
    {
      "bufferView": 2,
      "byteOffset": 148380,
      "componentType": 5126,
      "count": 2661,
      "max": [
        1.0,
        1.0,
        1.0
      ],
      "min": [
        -1.0,
        -1.0,
        -1.0
      ],
      "type": "VEC3"
    },
    {
      "bufferView": 3,
      "byteOffset": 77632,
      "componentType": 5126,
      "count": 2661,
      "max": [
        1.0,
        1.0,
        1.0,
        1.0
      ],
      "min": [
        -1.0,
        -1.0,
        -1.0,
        -1.0
      ],
      "type": "VEC4"
    },
    {
      "bufferView": 1,
      "byteOffset": 116448,
      "componentType": 5126,
      "count": 2661,
      "max": [
        0.9958515167236328,
        0.9961190223693848
      ],
      "min": [
        0.003881096839904785,
        0.0038809776306152344
      ],
      "type": "VEC2"
    },
    {
      "bufferView": 1,
      "byteOffset": 137736,
      "componentType": 5126,
      "count": 2661,
      "max": [
        0.9958515167236328,
        0.9961190223693848
      ],
      "min": [
        0.003881096839904785,
        0.0038809776306152344
      ],
      "type": "VEC2"
    },
    {
      "bufferView": 1,
      "byteOffset": 159024,
      "componentType": 5126,
      "count": 2661,
      "max": [
        0.9958515167236328,
        0.9961190223693848
      ],
      "min": [
        0.003881096839904785,
        0.0038809776306152344
      ],
      "type": "VEC2"
    },
    {
      "bufferView": 0,
      "byteOffset": 61008,
      "componentType": 5125,
      "count": 7626,
      "type": "SCALAR"
    },
    {
      "bufferView": 2,
      "byteOffset": 180312,
      "componentType": 5126,
      "count": 2661,
      "max": [
        0.2840558886528015,
        1.3000000715255737,
        5.300000190734863
      ],
      "min": [
        -1.8488191366195679,
        -1.3000000715255737,
        0.0
      ],
      "type": "VEC3"
    },
    {
      "bufferView": 2,
      "byteOffset": 212244,
      "componentType": 5126,
      "count": 2661,
      "max": [
        1.0,
        1.0,
        1.0
      ],
      "min": [
        -1.0,
        -1.0,
        -1.0
      ],
      "type": "VEC3"
    },
    {
      "bufferView": 3,
      "byteOffset": 120208,
      "componentType": 5126,
      "count": 2661,
      "max": [
        1.0,
        1.0,
        1.0,
        1.0
      ],
      "min": [
        -1.0,
        -1.0,
        -1.0,
        -1.0
      ],
      "type": "VEC4"
    },
    {
      "bufferView": 1,
      "byteOffset": 180312,
      "componentType": 5126,
      "count": 2661,
      "max": [
        0.9958515167236328,
        0.9961190223693848
      ],
      "min": [
        0.003881096839904785,
        0.0038809776306152344
      ],
      "type": "VEC2"
    },
    {
      "bufferView": 1,
      "byteOffset": 201600,
      "componentType": 5126,
      "count": 2661,
      "max": [
        0.9958515167236328,
        0.9961190223693848
      ],
      "min": [
        0.003881096839904785,
        0.0038809776306152344
      ],
      "type": "VEC2"
    },
    {
      "bufferView": 1,
      "byteOffset": 222888,
      "componentType": 5126,
      "count": 2661,
      "max": [
        0.9958515167236328,
        0.9961190223693848
      ],
      "min": [
        0.003881096839904785,
        0.0038809776306152344
      ],
      "type": "VEC2"
    },
    {
      "bufferView": 0,
      "byteOffset": 91512,
      "componentType": 5125,
      "count": 7626,
      "type": "SCALAR"
    }
  ],
  "asset": {
    "extras": {
      "author": "Toni García Vilche (https://sketchfab.com/zul_gv)",
      "license": "CC-BY-4.0 (http://creativecommons.org/licenses/by/4.0/)",
      "source": "https://sketchfab.com/3d-models/interior-wood-doors-pack-1-32707dcfa6304f49bf99148d0211f5f7",
      "title": "Interior Wood Doors Pack 1"
    },
    "generator": "Sketchfab-14.64.0",
    "version": "2.0"
  },
  "bufferViews": [
    {
      "buffer": 0,
      "byteLength": 122016,
      "name": "floatBufferViews",
      "target": 34963
    },
    {
      "buffer": 0,
      "byteLength": 244176,
      "byteOffset": 122016,
      "byteStride": 8,
      "name": "floatBufferViews",
      "target": 34962
    },
    {
      "buffer": 0,
      "byteLength": 244176,
      "byteOffset": 366192,
      "byteStride": 12,
      "name": "floatBufferViews",
      "target": 34962
    },
    {
      "buffer": 0,
      "byteLength": 162784,
      "byteOffset": 610368,
      "byteStride": 16,
      "name": "floatBufferViews",
      "target": 34962
    }
  ],
  "buffers": [
    {
      "byteLength": 773152,
      "uri": "scene.bin"
    }
  ],
  "extensionsUsed": [
    "KHR_materials_specular"
  ],
  "images": [
    {
      "uri": "textures/material_baseColor.png"
    },
    {
      "uri": "textures/material_metallicRoughness.png"
    },
    {
      "uri": "textures/material_normal.png"
    },
    {
      "uri": "textures/material_1_baseColor.png"
    },
    {
      "uri": "textures/material_1_metallicRoughness.png"
    },
    {
      "uri": "textures/material_1_normal.png"
    }
  ],
  "materials": [
    {
      "doubleSided": true,
      "extensions": {
        "KHR_materials_specular": {
          "specularColorFactor": [
            1.0,
            1.0,
            1.0
          ],
          "specularFactor": 0.3
        }
      },
      "name": "material",
      "normalTexture": {
        "index": 2
      },
      "pbrMetallicRoughness": {
        "baseColorTexture": {
          "index": 0
        },
        "metallicRoughnessTexture": {
          "index": 1
        },
        "roughnessFactor": 0.6
      }
    },
    {
      "doubleSided": true,
      "extensions": {
        "KHR_materials_specular": {
          "specularColorFactor": [
            1.0,
            1.0,
            1.0
          ],
          "specularFactor": 0.3
        }
      },
      "name": "material_1",
      "normalTexture": {
        "index": 5
      },
      "pbrMetallicRoughness": {
        "baseColorTexture": {
          "index": 3
        },
        "metallicRoughnessTexture": {
          "index": 4
        },
        "roughnessFactor": 0.6
      }
    }
  ],
  "meshes": [
    {
      "name": "D1-Frame_D1_0",
      "primitives": [
        {
          "attributes": {
            "NORMAL": 1,
            "POSITION": 0,
            "TANGENT": 2,
            "TEXCOORD_0": 3,
            "TEXCOORD_1": 4,
            "TEXCOORD_2": 5
          },
          "indices": 6,
          "material": 0,
          "mode": 4
        }
      ]
    },
    {
      "name": "D1-Door_D1_0",
      "primitives": [
        {
          "attributes": {
            "NORMAL": 8,
            "POSITION": 7,
            "TANGENT": 9,
            "TEXCOORD_0": 10,
            "TEXCOORD_1": 11,
            "TEXCOORD_2": 12
          },
          "indices": 13,
          "material": 0,
          "mode": 4
        }
      ]
    },
    {
      "name": "D2-Frame_D2_0",
      "primitives": [
        {
          "attributes": {
            "NORMAL": 15,
            "POSITION": 14,
            "TANGENT": 16,
            "TEXCOORD_0": 17,
            "TEXCOORD_1": 18,
            "TEXCOORD_2": 19
          },
          "indices": 20,
          "material": 1,
          "mode": 4
        }
      ]
    },
    {
      "name": "D2-Door_D2_0",
      "primitives": [
        {
          "attributes": {
            "NORMAL": 22,
            "POSITION": 21,
            "TANGENT": 23,
            "TEXCOORD_0": 24,
            "TEXCOORD_1": 25,
            "TEXCOORD_2": 26
          },
          "indices": 27,
          "material": 1,
          "mode": 4
        }
      ]
    },
    {
      "name": "D1-Preview_D2_0",
      "primitives": [
        {
          "attributes": {
            "NORMAL": 29,
            "POSITION": 28,
            "TANGENT": 30,
            "TEXCOORD_0": 31,
            "TEXCOORD_1": 32,
            "TEXCOORD_2": 33
          },
          "indices": 34,
          "material": 1,
          "mode": 4
        }
      ]
    },
    {
      "name": "D2-Preview_D1_0",
      "primitives": [
        {
          "attributes": {
            "NORMAL": 36,
            "POSITION": 35,
            "TANGENT": 37,
            "TEXCOORD_0": 38,
            "TEXCOORD_1": 39,
            "TEXCOORD_2": 40
          },
          "indices": 41,
          "material": 0,
          "mode": 4
        }
      ]
    }
  ],
  "nodes": [
    {
      "children": [
        1
      ],
      "matrix": [
        1.0,
        0.0,
        0.0,
        0.0,
        0.0,
        2.220446049250313e-16,
        -1.0,
        0.0,
        0.0,
        1.0,
        2.220446049250313e-16,
        0.0,
        0.0,
        0.0,
        0.0,
        1.0
      ],
      "name": "Sketchfab_model"
    },
    {
      "children": [
        2
      ],
      "matrix": [
        0.009999999776482582,
        0.0,
        0.0,
        0.0,
        0.0,
        0.0,
        0.009999999776482582,
        0.0,
        0.0,
        -0.009999999776482582,
        0.0,
        0.0,
        0.0,
        0.0,
        0.0,
        1.0
      ],
      "name": "InteriorWoodDoors.fbx"
    },
    {
      "children": [
        3,
        5,
        7,
        9,
        11,
        13
      ],
      "name": "RootNode"
    },
    {
      "children": [
        4
      ],
      "matrix": [
        -99.99999999999241,
        1.2246465878873718e-14,
        -3.894143777553012e-05,
        0.0,
        -3.894143777553e-05,
        7.549789982075339e-06,
        99.99999999999213,
        0.0,
        2.9522432265841658e-12,
        99.9999999999997,
        -7.549789970973109e-06,
        0.0,
        7.44562292098999,
        0.0,
        514.9552612304688,
        1.0
      ],
      "name": "D1-Frame"
    },
    {
      "mesh": 0,
      "name": "D1-Frame_D1_0"
    },
    {
      "children": [
        6
      ],
      "matrix": [
        -99.99999999999885,
        1.2246469849340659e-14,
        1.5099579909783702e-05,
        0.0,
        1.5099579909783661e-05,
        7.549789993177569e-06,
        99.99999999999856,
        0.0,
        -1.127740100078761e-12,
        99.9999999999997,
        -7.549789970973109e-06,
        0.0,
        20.000019073486328,
        529.9989624023438,
        415.0,
        1.0
      ],
      "name": "D1-Door"
    },
    {
      "mesh": 1,
      "name": "D1-Door_D1_0"
    },
    {
      "children": [
        8
      ],
      "matrix": [
        -99.99999999999241,
        1.2246465878873718e-14,
        -3.894143777553012e-05,
        0.0,
        -3.894143777553e-05,
        7.549789982075339e-06,
        99.99999999999213,
        0.0,
        2.9522432265841658e-12,
        99.9999999999997,
        -7.549789970973109e-06,
        0.0,
        7.44562292098999,
        0.0,
        -185.04473876953125,
        1.0
      ],
      "name": "D2-Frame"
    },
    {
      "mesh": 2,
      "name": "D2-Frame_D2_0"
    },
    {
      "children": [
        10
      ],
      "matrix": [
        -99.99999999999885,
        1.2246469849340659e-14,
        1.5099579909783702e-05,
        0.0,
        1.5099579909783661e-05,
        7.549789993177569e-06,
        99.99999999999856,
        0.0,
        -1.127740100078761e-12,
        99.9999999999997,
        -7.549789970973109e-06,
        0.0,
        20.000019073486328,
        529.9989624023438,
        -285.0,
        1.0
      ],
      "name": "D2-Door"
    },
    {
      "mesh": 3,
      "name": "D2-Door_D2_0"
    },
    {
      "children": [
        12
      ],
      "matrix": [
        -99.99999999999241,
        1.2246465878873718e-14,
        -3.894143777553012e-05,
        0.0,
        -3.894143777553e-05,
        7.549789982075339e-06,
        99.99999999999213,
        0.0,
        2.9522432265841658e-12,
        99.9999999999997,
        -7.549789970973109e-06,
        0.0,
        7.44562292098999,
        0.0,
        -515.0447387695313,
        1.0
      ],
      "name": "D1-Preview"
    },
    {
      "mesh": 4,
      "name": "D1-Preview_D2_0"
    },
    {
      "children": [
        14
      ],
      "matrix": [
        -99.99999999999241,
        1.2246465878873718e-14,
        -3.894143777553012e-05,
        0.0,
        -3.894143777553e-05,
        7.549789982075339e-06,
        99.99999999999213,
        0.0,
        2.9522432265841658e-12,
        99.9999999999997,
        -7.549789970973109e-06,
        0.0,
        7.44562292098999,
        0.0,
        184.95526123046875,
        1.0
      ],
      "name": "D2-Preview"
    },
    {
      "mesh": 5,
      "name": "D2-Preview_D1_0"
    }
  ],
  "samplers": [
    {
      "magFilter": 9728,
      "minFilter": 9728,
      "wrapS": 10497,
      "wrapT": 10497
    }
  ],
  "scene": 0,
  "scenes": [
    {
      "name": "Sketchfab_Scene",
      "nodes": [
        0
      ]
    }
  ],
  "textures": [
    {
      "sampler": 0,
      "source": 0
    },
    {
      "sampler": 0,
      "source": 1
    },
    {
      "sampler": 0,
      "source": 2
    },
    {
      "sampler": 0,
      "source": 3
    },
    {
      "sampler": 0,
      "source": 4
    },
    {
      "sampler": 0,
      "source": 5
    }
  ]
}
