{
	"asset":{
		"generator":"Khronos glTF Blender I/O v5.0.21",
		"version":"2.0"
	},
	"scene":0,
	"scenes":[
		{
			"name":"Scene",
			"nodes":[
				0
			]
		}
	],
	"nodes":[
		{
			"mesh":0,
			"name":"A38_Window_120x150_062_Mat_A38_Window_Wall_001_0",
			"rotation":[
				-0.5000001788139343,
				0.4999998211860657,
				0.4999997615814209,
				0.5000002384185791
			],
			"scale":[
				6.8674685280711856e-06,
				6.867466709081782e-06,
				6.867469437565887e-06
			],
			"translation":[
				0,
				0,
				-0.008958515711128712
			]
		}
	],
	"materials":[
		{
			"doubleSided":true,
			"name":"Mat_A38_Window_Wall_001.002",
			"pbrMetallicRoughness":{
				"baseColorFactor":[
					0.9529410004615784,
					0.9529410004615784,
					0.9529410004615784,
					1
				],
				"metallicFactor":0,
				"roughnessFactor":0.8929713368415833
			}
		},
		{
			"doubleSided":true,
			"name":"Mat_A38_Window_Frame_002.002",
			"pbrMetallicRoughness":{
				"baseColorFactor":[
					0.1450980007648468,
					0.1450980007648468,
					0.1450980007648468,
					1
				],
				"metallicFactor":0.4468368887901306,
				"roughnessFactor":0.7604801654815674
			}
		},
		{
			"doubleSided":true,
			"name":"Mat_A38_Window_Frame_001.002",
			"pbrMetallicRoughness":{
				"baseColorFactor":[
					0.756862998008728,
					0.756862998008728,
					0.756862998008728,
					1
				],
				"metallicFactor":0.38586127758026123,
				"roughnessFactor":0.8929713368415833
			}
		},
		{
			"doubleSided":true,
			"name":"Mat_A38_Window_FrameX_003.002",
			"pbrMetallicRoughness":{
				"baseColorFactor":[
					0.8862749934196472,
					0.8784310221672058,
					0.8705880045890808,
					1
				],
				"metallicFactor":0,
				"roughnessFactor":0.6141387224197388
			}
		},
		{
			"alphaMode":"BLEND",
			"doubleSided":true,
			"name":"Mat_A38_Window_Glass_001.002",
			"pbrMetallicRoughness":{
				"baseColorFactor":[
					0.5882350206375122,
					0.6588240265846252,
					0.7058820128440857,
					0.1114710345864296
				],
				"metallicFactor":0.9102514982223511,
				"roughnessFactor":0
			}
		},
		{
			"doubleSided":true,
			"name":"Mat_A38_Window_Rubber_001.002",
			"pbrMetallicRoughness":{
				"baseColorFactor":[
					0.08627449721097946,
					0.08627449721097946,
					0.08627449721097946,
					1
				],
				"metallicFactor":0,
				"roughnessFactor":0.8812443017959595
			}
		},
		{
			"doubleSided":true,
			"name":"Mat_A38_Window_Plastic_001.002",
			"pbrMetallicRoughness":{
				"baseColorFactor":[
					0.7450979948043823,
					0.7450979948043823,
					0.7450979948043823,
					1
				],
				"metallicFactor":0,
				"roughnessFactor":0.8727207779884338
			}
		},
		{
			"doubleSided":true,
			"name":"Mat_A38_Window_Handbar_001.002",
			"pbrMetallicRoughness":{
				"baseColorFactor":[
					0.5450980067253113,
					0.5450980067253113,
					0.5450980067253113,
					1
				],
				"metallicFactor":0,
				"roughnessFactor":0.8791684508323669
			}
		}
	],
	"meshes":[
		{
			"name":"A38_Window_120x150_062_Mat_A38_Window_Wall_001_0.002",
			"primitives":[
				{
					"attributes":{
						"POSITION":0,
						"NORMAL":1,
						"TEXCOORD_0":2
					},
					"indices":3,
					"material":0
				},
				{
					"attributes":{
						"POSITION":4,
						"NORMAL":5,
						"TEXCOORD_0":6
					},
					"indices":3,
					"material":1
				},
				{
					"attributes":{
						"POSITION":7,
						"NORMAL":8,
						"TEXCOORD_0":9
					},
					"indices":3,
					"material":2
				},
				{
					"attributes":{
						"POSITION":10,
						"NORMAL":11,
						"TEXCOORD_0":12
					},
					"indices":13,
					"material":3
				},
				{
					"attributes":{
						"POSITION":14,
						"NORMAL":15,
						"TEXCOORD_0":16
					},
					"indices":17,
					"material":4
				},
				{
					"attributes":{
						"POSITION":18,
						"NORMAL":19,
						"TEXCOORD_0":20
					},
					"indices":21,
					"material":5
				},
				{
					"attributes":{
						"POSITION":22,
						"NORMAL":23,
						"TEXCOORD_0":24
					},
					"indices":25,
					"material":6
				},
				{
					"attributes":{
						"POSITION":26,
						"NORMAL":27,
						"TEXCOORD_0":28
					},
					"indices":29,
					"material":7
				}
			]
		}
	],
	"accessors":[
		{
			"bufferView":0,
			"componentType":5126,
			"count":56,
			"max":[
				4706.6865234375,
				60000.00390625,
				149999.984375
			],
			"min":[
				-4706.685546875,
				-60000.00390625,
				-6.268611851152075e-16
			],
			"type":"VEC3"
		},
		{
			"bufferView":1,
			"componentType":5126,
			"count":56,
			"type":"VEC3"
		},
		{
			"bufferView":2,
			"componentType":5126,
			"count":56,
			"type":"VEC2"
		},
		{
			"bufferView":3,
			"componentType":5123,
			"count":96,
			"type":"SCALAR"
		},
		{
			"bufferView":4,
			"componentType":5126,
			"count":56,
			"max":[
				3706.686279296875,
				57000,
				146999.984375
			],
			"min":[
				1706.686767578125,
				-56999.9921875,
				2999.999755859375
			],
			"type":"VEC3"
		},
		{
			"bufferView":5,
			"componentType":5126,
			"count":56,
			"type":"VEC3"
		},
		{
			"bufferView":6,
			"componentType":5126,
			"count":56,
			"type":"VEC2"
		},
		{
			"bufferView":7,
			"componentType":5126,
			"count":56,
			"max":[
				1706.686767578125,
				54000,
				143999.984375
			],
			"min":[
				-5293.3125,
				-53999.9921875,
				5999.99951171875
			],
			"type":"VEC3"
		},
		{
			"bufferView":8,
			"componentType":5126,
			"count":56,
			"type":"VEC3"
		},
		{
			"bufferView":9,
			"componentType":5126,
			"count":56,
			"type":"VEC2"
		},
		{
			"bufferView":10,
			"componentType":5126,
			"count":282,
			"max":[
				-30.604248046875,
				50000,
				139999.984375
			],
			"min":[
				-3556.021240234375,
				-49999.9921875,
				9999.9990234375
			],
			"type":"VEC3"
		},
		{
			"bufferView":11,
			"componentType":5126,
			"count":282,
			"type":"VEC3"
		},
		{
			"bufferView":12,
			"componentType":5126,
			"count":282,
			"type":"VEC2"
		},
		{
			"bufferView":13,
			"componentType":5123,
			"count":492,
			"type":"SCALAR"
		},
		{
			"bufferView":14,
			"componentType":5126,
			"count":24,
			"max":[
				-1293.31298828125,
				50000,
				139999.984375
			],
			"min":[
				-2293.31298828125,
				-49999.9921875,
				9999.9990234375
			],
			"type":"VEC3"
		},
		{
			"bufferView":15,
			"componentType":5126,
			"count":24,
			"type":"VEC3"
		},
		{
			"bufferView":16,
			"componentType":5126,
			"count":24,
			"type":"VEC2"
		},
		{
			"bufferView":17,
			"componentType":5123,
			"count":36,
			"type":"SCALAR"
		},
		{
			"bufferView":18,
			"componentType":5126,
			"count":288,
			"max":[
				-691.618408203125,
				49000,
				138999.984375
			],
			"min":[
				-2895.00732421875,
				-48999.9921875,
				10999.9990234375
			],
			"type":"VEC3"
		},
		{
			"bufferView":19,
			"componentType":5126,
			"count":288,
			"type":"VEC3"
		},
		{
			"bufferView":20,
			"componentType":5126,
			"count":288,
			"type":"VEC2"
		},
		{
			"bufferView":21,
			"componentType":5123,
			"count":432,
			"type":"SCALAR"
		},
		{
			"bufferView":22,
			"componentType":5126,
			"count":182,
			"max":[
				-3893.312744140625,
				53386.7578125,
				138999.984375
			],
			"min":[
				-6793.3125,
				-55400,
				9999.9990234375
			],
			"type":"VEC3"
		},
		{
			"bufferView":23,
			"componentType":5126,
			"count":182,
			"type":"VEC3"
		},
		{
			"bufferView":24,
			"componentType":5126,
			"count":182,
			"type":"VEC2"
		},
		{
			"bufferView":25,
			"componentType":5123,
			"count":432,
			"type":"SCALAR"
		},
		{
			"bufferView":26,
			"componentType":5126,
			"count":593,
			"max":[
				-6793.3125,
				52999.99609375,
				75999.9921875
			],
			"min":[
				-10703.17578125,
				50999.99609375,
				61090.13671875
			],
			"type":"VEC3"
		},
		{
			"bufferView":27,
			"componentType":5126,
			"count":593,
			"type":"VEC3"
		},
		{
			"bufferView":28,
			"componentType":5126,
			"count":593,
			"type":"VEC2"
		},
		{
			"bufferView":29,
			"componentType":5123,
			"count":3156,
			"type":"SCALAR"
		}
	],
	"bufferViews":[
		{
			"buffer":0,
			"byteLength":672,
			"byteOffset":0,
			"target":34962
		},
		{
			"buffer":0,
			"byteLength":672,
			"byteOffset":672,
			"target":34962
		},
		{
			"buffer":0,
			"byteLength":448,
			"byteOffset":1344,
			"target":34962
		},
		{
			"buffer":0,
			"byteLength":192,
			"byteOffset":1792,
			"target":34963
		},
		{
			"buffer":0,
			"byteLength":672,
			"byteOffset":1984,
			"target":34962
		},
		{
			"buffer":0,
			"byteLength":672,
			"byteOffset":2656,
			"target":34962
		},
		{
			"buffer":0,
			"byteLength":448,
			"byteOffset":3328,
			"target":34962
		},
		{
			"buffer":0,
			"byteLength":672,
			"byteOffset":3776,
			"target":34962
		},
		{
			"buffer":0,
			"byteLength":672,
			"byteOffset":4448,
			"target":34962
		},
		{
			"buffer":0,
			"byteLength":448,
			"byteOffset":5120,
			"target":34962
		},
		{
			"buffer":0,
			"byteLength":3384,
			"byteOffset":5568,
			"target":34962
		},
		{
			"buffer":0,
			"byteLength":3384,
			"byteOffset":8952,
			"target":34962
		},
		{
			"buffer":0,
			"byteLength":2256,
			"byteOffset":12336,
			"target":34962
		},
		{
			"buffer":0,
			"byteLength":984,
			"byteOffset":14592,
			"target":34963
		},
		{
			"buffer":0,
			"byteLength":288,
			"byteOffset":15576,
			"target":34962
		},
		{
			"buffer":0,
			"byteLength":288,
			"byteOffset":15864,
			"target":34962
		},
		{
			"buffer":0,
			"byteLength":192,
			"byteOffset":16152,
			"target":34962
		},
		{
			"buffer":0,
			"byteLength":72,
			"byteOffset":16344,
			"target":34963
		},
		{
			"buffer":0,
			"byteLength":3456,
			"byteOffset":16416,
			"target":34962
		},
		{
			"buffer":0,
			"byteLength":3456,
			"byteOffset":19872,
			"target":34962
		},
		{
			"buffer":0,
			"byteLength":2304,
			"byteOffset":23328,
			"target":34962
		},
		{
			"buffer":0,
			"byteLength":864,
			"byteOffset":25632,
			"target":34963
		},
		{
			"buffer":0,
			"byteLength":2184,
			"byteOffset":26496,
			"target":34962
		},
		{
			"buffer":0,
			"byteLength":2184,
			"byteOffset":28680,
			"target":34962
		},
		{
			"buffer":0,
			"byteLength":1456,
			"byteOffset":30864,
			"target":34962
		},
		{
			"buffer":0,
			"byteLength":864,
			"byteOffset":32320,
			"target":34963
		},
		{
			"buffer":0,
			"byteLength":7116,
			"byteOffset":33184,
			"target":34962
		},
		{
			"buffer":0,
			"byteLength":7116,
			"byteOffset":40300,
			"target":34962
		},
		{
			"buffer":0,
			"byteLength":4744,
			"byteOffset":47416,
			"target":34962
		},
		{
			"buffer":0,
			"byteLength":6312,
			"byteOffset":52160,
			"target":34963
		}
	],
	"buffers":[
		{
			"byteLength":58472,
			"uri":"scene.bin"
		}
	]
}
