{
	"asset":{
		"generator":"Khronos glTF Blender I/O v5.0.21",
		"version":"2.0"
	},
	"scene":0,
	"scenes":[
		{
			"name":"Scene",
			"nodes":[
				14
			]
		}
	],
	"nodes":[
		{
			"mesh":0,
			"name":"A38_Window_120x150_062_Mat_A38_Window_Frame_001_0"
		},
		{
			"mesh":1,
			"name":"A38_Window_120x150_062_Mat_A38_Window_Frame_002_0"
		},
		{
			"mesh":2,
			"name":"A38_Window_120x150_062_Mat_A38_Window_FrameX_003_0"
		},
		{
			"mesh":3,
			"name":"A38_Window_120x150_062_Mat_A38_Window_Glass_001_0"
		},
		{
			"mesh":4,
			"name":"A38_Window_120x150_062_Mat_A38_Window_Handbar_001_0"
		},
		{
			"mesh":5,
			"name":"A38_Window_120x150_062_Mat_A38_Window_Plastic_001_0"
		},
		{
			"mesh":6,
			"name":"A38_Window_120x150_062_Mat_A38_Window_Rubber_001_0"
		},
		{
			"mesh":7,
			"name":"A38_Window_120x150_062_Mat_A38_Window_Wall_001_0"
		},
		{
			"children":[
				0,
				1,
				2,
				3,
				4,
				5,
				6,
				7
			],
			"name":"A38_Window_120x150_062"
		},
		{
			"children":[
				8
			],
			"name":"FSZ_Line_Wall_Outer1"
		},
		{
			"children":[
				9
			],
			"name":"A38_Main_Basement_001"
		},
		{
			"children":[
				10
			],
			"name":"A38_Entrance_Stairs_001"
		},
		{
			"children":[
				11
			],
			"name":"RootNode"
		},
		{
			"children":[
				12
			],
			"name":"9e372f30a8974bb0b4b83728832ed115.fbx"
		},
		{
			"children":[
				13
			],
			"name":"Sketchfab_model"
		}
	],
	"materials":[
		{
			"doubleSided":true,
			"name":"Mat_A38_Window_Frame_001",
			"pbrMetallicRoughness":{
				"baseColorFactor":[
					0.756862998008728,
					0.756862998008728,
					0.756862998008728,
					1
				],
				"metallicFactor":0.38586127758026123,
				"roughnessFactor":0.8929713368415833
			}
		},
		{
			"doubleSided":true,
			"name":"Mat_A38_Window_Frame_002",
			"pbrMetallicRoughness":{
				"baseColorFactor":[
					0.1450980007648468,
					0.1450980007648468,
					0.1450980007648468,
					1
				],
				"metallicFactor":0.4468368887901306,
				"roughnessFactor":0.7604801654815674
			}
		},
		{
			"doubleSided":true,
			"name":"Mat_A38_Window_FrameX_003",
			"pbrMetallicRoughness":{
				"baseColorFactor":[
					0.8862749934196472,
					0.8784310221672058,
					0.8705880045890808,
					1
				],
				"metallicFactor":0,
				"roughnessFactor":0.6141387224197388
			}
		},
		{
			"alphaMode":"BLEND",
			"doubleSided":true,
			"name":"Mat_A38_Window_Glass_001",
			"pbrMetallicRoughness":{
				"baseColorFactor":[
					0.5882350206375122,
					0.6588240265846252,
					0.7058820128440857,
					0.1114710345864296
				],
				"metallicFactor":0.9102514982223511,
				"roughnessFactor":0
			}
		},
		{
			"doubleSided":true,
			"name":"Mat_A38_Window_Handbar_001",
			"pbrMetallicRoughness":{
				"baseColorFactor":[
					0.5450980067253113,
					0.5450980067253113,
					0.5450980067253113,
					1
				],
				"metallicFactor":0,
				"roughnessFactor":0.8791684508323669
			}
		},
		{
			"doubleSided":true,
			"name":"Mat_A38_Window_Plastic_001",
			"pbrMetallicRoughness":{
				"baseColorFactor":[
					0.7450979948043823,
					0.7450979948043823,
					0.7450979948043823,
					1
				],
				"metallicFactor":0,
				"roughnessFactor":0.8727207779884338
			}
		},
		{
			"doubleSided":true,
			"name":"Mat_A38_Window_Rubber_001",
			"pbrMetallicRoughness":{
				"baseColorFactor":[
					0.08627449721097946,
					0.08627449721097946,
					0.08627449721097946,
					1
				],
				"metallicFactor":0,
				"roughnessFactor":0.8812443017959595
			}
		},
		{
			"doubleSided":true,
			"name":"Mat_A38_Window_Wall_001",
			"pbrMetallicRoughness":{
				"baseColorFactor":[
					0.9529410004615784,
					0.9529410004615784,
					0.9529410004615784,
					1
				],
				"metallicFactor":0,
				"roughnessFactor":0.8929713368415833
			}
		}
	],
	"meshes":[
		{
			"name":"A38_Window_120x150_062_Mat_A38_Window_Frame_001_0",
			"primitives":[
				{
					"attributes":{
						"POSITION":0,
						"NORMAL":1,
						"TEXCOORD_0":2
					},
					"indices":3,
					"material":0
				}
			]
		},
		{
			"name":"A38_Window_120x150_062_Mat_A38_Window_Frame_002_0",
			"primitives":[
				{
					"attributes":{
						"POSITION":4,
						"NORMAL":5,
						"TEXCOORD_0":6
					},
					"indices":3,
					"material":1
				}
			]
		},
		{
			"name":"A38_Window_120x150_062_Mat_A38_Window_FrameX_003_0",
			"primitives":[
				{
					"attributes":{
						"POSITION":7,
						"NORMAL":8,
						"TEXCOORD_0":9
					},
					"indices":10,
					"material":2
				}
			]
		},
		{
			"name":"A38_Window_120x150_062_Mat_A38_Window_Glass_001_0",
			"primitives":[
				{
					"attributes":{
						"POSITION":11,
						"NORMAL":12,
						"TEXCOORD_0":13
					},
					"indices":14,
					"material":3
				}
			]
		},
		{
			"name":"A38_Window_120x150_062_Mat_A38_Window_Handbar_001_0",
			"primitives":[
				{
					"attributes":{
						"POSITION":15,
						"NORMAL":16,
						"TEXCOORD_0":17
					},
					"indices":18,
					"material":4
				}
			]
		},
		{
			"name":"A38_Window_120x150_062_Mat_A38_Window_Plastic_001_0",
			"primitives":[
				{
					"attributes":{
						"POSITION":19,
						"NORMAL":20,
						"TEXCOORD_0":21
					},
					"indices":22,
					"material":5
				}
			]
		},
		{
			"name":"A38_Window_120x150_062_Mat_A38_Window_Rubber_001_0",
			"primitives":[
				{
					"attributes":{
						"POSITION":23,
						"NORMAL":24,
						"TEXCOORD_0":25
					},
					"indices":26,
					"material":6
				}
			]
		},
		{
			"name":"A38_Window_120x150_062_Mat_A38_Window_Wall_001_0",
			"primitives":[
				{
					"attributes":{
						"POSITION":27,
						"NORMAL":28,
						"TEXCOORD_0":29
					},
					"indices":3,
					"material":7
				}
			]
		}
	],
	"accessors":[
		{
			"bufferView":0,
			"componentType":5126,
			"count":56,
			"max":[
				539.630615234375,
				1439.015869140625,
				0.0003859739808831364
			],
			"min":[
				-539.6307983398438,
				59.9589958190918,
				-69.9525375366211
			],
			"type":"VEC3"
		},
		{
			"bufferView":1,
			"componentType":5126,
			"count":56,
			"type":"VEC3"
		},
		{
			"bufferView":2,
			"componentType":5126,
			"count":56,
			"type":"VEC2"
		},
		{
			"bufferView":3,
			"componentType":5123,
			"count":96,
			"type":"SCALAR"
		},
		{
			"bufferView":4,
			"componentType":5126,
			"count":56,
			"max":[
				569.6100463867188,
				1468.995361328125,
				-69.95174407958984
			],
			"min":[
				-569.6102905273438,
				29.9794979095459,
				-89.93888092041016
			],
			"type":"VEC3"
		},
		{
			"bufferView":5,
			"componentType":5126,
			"count":56,
			"type":"VEC3"
		},
		{
			"bufferView":6,
			"componentType":5126,
			"count":56,
			"type":"VEC2"
		},
		{
			"bufferView":7,
			"componentType":5126,
			"count":282,
			"max":[
				499.6579895019531,
				1399.043212890625,
				-17.360774993896484
			],
			"min":[
				-499.65814208984375,
				99.93165588378906,
				-52.591373443603516
			],
			"type":"VEC3"
		},
		{
			"bufferView":8,
			"componentType":5126,
			"count":282,
			"type":"VEC3"
		},
		{
			"bufferView":9,
			"componentType":5126,
			"count":282,
			"type":"VEC2"
		},
		{
			"bufferView":10,
			"componentType":5123,
			"count":492,
			"type":"SCALAR"
		},
		{
			"bufferView":11,
			"componentType":5126,
			"count":24,
			"max":[
				499.657958984375,
				1399.043212890625,
				-29.979135513305664
			],
			"min":[
				-499.65814208984375,
				99.93165588378906,
				-39.97301483154297
			],
			"type":"VEC3"
		},
		{
			"bufferView":12,
			"componentType":5126,
			"count":24,
			"type":"VEC3"
		},
		{
			"bufferView":13,
			"componentType":5126,
			"count":24,
			"type":"VEC2"
		},
		{
			"bufferView":14,
			"componentType":5123,
			"count":36,
			"type":"SCALAR"
		},
		{
			"bufferView":15,
			"componentType":5126,
			"count":593,
			"max":[
				-509.6512145996094,
				759.4805908203125,
				54.06201934814453
			],
			"min":[
				-529.6375732421875,
				610.4839477539062,
				14.990111351013184
			],
			"type":"VEC3"
		},
		{
			"bufferView":16,
			"componentType":5126,
			"count":593,
			"type":"VEC3"
		},
		{
			"bufferView":17,
			"componentType":5126,
			"count":593,
			"type":"VEC2"
		},
		{
			"bufferView":18,
			"componentType":5123,
			"count":3156,
			"type":"SCALAR"
		},
		{
			"bufferView":19,
			"componentType":5126,
			"count":182,
			"max":[
				553.62109375,
				1389.050048828125,
				14.990124702453613
			],
			"min":[
				-533.5025024414062,
				99.93165588378906,
				-13.990816116333008
			],
			"type":"VEC3"
		},
		{
			"bufferView":20,
			"componentType":5126,
			"count":182,
			"type":"VEC3"
		},
		{
			"bufferView":21,
			"componentType":5126,
			"count":182,
			"type":"VEC2"
		},
		{
			"bufferView":22,
			"componentType":5123,
			"count":432,
			"type":"SCALAR"
		},
		{
			"bufferView":23,
			"componentType":5126,
			"count":288,
			"max":[
				489.664794921875,
				1389.050048828125,
				-23.966402053833008
			],
			"min":[
				-489.66497802734375,
				109.9248275756836,
				-45.985748291015625
			],
			"type":"VEC3"
		},
		{
			"bufferView":24,
			"componentType":5126,
			"count":288,
			"type":"VEC3"
		},
		{
			"bufferView":25,
			"componentType":5126,
			"count":288,
			"type":"VEC2"
		},
		{
			"bufferView":26,
			"componentType":5123,
			"count":432,
			"type":"SCALAR"
		},
		{
			"bufferView":27,
			"componentType":5126,
			"count":56,
			"max":[
				599.5897216796875,
				1498.974853515625,
				99.93206787109375
			],
			"min":[
				-599.58984375,
				-7.675270835560966e-11,
				-99.93206787109375
			],
			"type":"VEC3"
		},
		{
			"bufferView":28,
			"componentType":5126,
			"count":56,
			"type":"VEC3"
		},
		{
			"bufferView":29,
			"componentType":5126,
			"count":56,
			"type":"VEC2"
		}
	],
	"bufferViews":[
		{
			"buffer":0,
			"byteLength":672,
			"byteOffset":0,
			"target":34962
		},
		{
			"buffer":0,
			"byteLength":672,
			"byteOffset":672,
			"target":34962
		},
		{
			"buffer":0,
			"byteLength":448,
			"byteOffset":1344,
			"target":34962
		},
		{
			"buffer":0,
			"byteLength":192,
			"byteOffset":1792,
			"target":34963
		},
		{
			"buffer":0,
			"byteLength":672,
			"byteOffset":1984,
			"target":34962
		},
		{
			"buffer":0,
			"byteLength":672,
			"byteOffset":2656,
			"target":34962
		},
		{
			"buffer":0,
			"byteLength":448,
			"byteOffset":3328,
			"target":34962
		},
		{
			"buffer":0,
			"byteLength":3384,
			"byteOffset":3776,
			"target":34962
		},
		{
			"buffer":0,
			"byteLength":3384,
			"byteOffset":7160,
			"target":34962
		},
		{
			"buffer":0,
			"byteLength":2256,
			"byteOffset":10544,
			"target":34962
		},
		{
			"buffer":0,
			"byteLength":984,
			"byteOffset":12800,
			"target":34963
		},
		{
			"buffer":0,
			"byteLength":288,
			"byteOffset":13784,
			"target":34962
		},
		{
			"buffer":0,
			"byteLength":288,
			"byteOffset":14072,
			"target":34962
		},
		{
			"buffer":0,
			"byteLength":192,
			"byteOffset":14360,
			"target":34962
		},
		{
			"buffer":0,
			"byteLength":72,
			"byteOffset":14552,
			"target":34963
		},
		{
			"buffer":0,
			"byteLength":7116,
			"byteOffset":14624,
			"target":34962
		},
		{
			"buffer":0,
			"byteLength":7116,
			"byteOffset":21740,
			"target":34962
		},
		{
			"buffer":0,
			"byteLength":4744,
			"byteOffset":28856,
			"target":34962
		},
		{
			"buffer":0,
			"byteLength":6312,
			"byteOffset":33600,
			"target":34963
		},
		{
			"buffer":0,
			"byteLength":2184,
			"byteOffset":39912,
			"target":34962
		},
		{
			"buffer":0,
			"byteLength":2184,
			"byteOffset":42096,
			"target":34962
		},
		{
			"buffer":0,
			"byteLength":1456,
			"byteOffset":44280,
			"target":34962
		},
		{
			"buffer":0,
			"byteLength":864,
			"byteOffset":45736,
			"target":34963
		},
		{
			"buffer":0,
			"byteLength":3456,
			"byteOffset":46600,
			"target":34962
		},
		{
			"buffer":0,
			"byteLength":3456,
			"byteOffset":50056,
			"target":34962
		},
		{
			"buffer":0,
			"byteLength":2304,
			"byteOffset":53512,
			"target":34962
		},
		{
			"buffer":0,
			"byteLength":864,
			"byteOffset":55816,
			"target":34963
		},
		{
			"buffer":0,
			"byteLength":672,
			"byteOffset":56680,
			"target":34962
		},
		{
			"buffer":0,
			"byteLength":672,
			"byteOffset":57352,
			"target":34962
		},
		{
			"buffer":0,
			"byteLength":448,
			"byteOffset":58024,
			"target":34962
		}
	],
	"buffers":[
		{
			"byteLength":58472,
			"uri":"squared_window.bin"
		}
	]
}
