{
	"asset":{
		"generator":"Khronos glTF Blender I/O v5.0.21",
		"version":"2.0"
	},
	"scene":0,
	"scenes":[
		{
			"name":"Scene",
			"nodes":[
				0
			]
		}
	],
	"nodes":[
		{
			"mesh":0,
			"name":"BRALSOFA_BRALSOFA_0",
			"scale":[
				6.5291674218315165e-06,
				6.5291678765788674e-06,
				6.5291678765788674e-06
			]
		}
	],
	"materials":[
		{
			"doubleSided":true,
			"name":"BRALSOFA.001",
			"normalTexture":{
				"index":0
			},
			"pbrMetallicRoughness":{
				"baseColorTexture":{
					"index":1
				},
				"metallicFactor":0,
				"roughnessFactor":0.5
			}
		}
	],
	"meshes":[
		{
			"name":"BRALSOFA_BRALSOFA_0.001",
			"primitives":[
				{
					"attributes":{
						"POSITION":0,
						"NORMAL":1,
						"TEXCOORD_0":2
					},
					"indices":3,
					"material":0
				}
			]
		}
	],
	"textures":[
		{
			"sampler":0,
			"source":0
		},
		{
			"sampler":0,
			"source":1
		}
	],
	"images":[
		{
			"mimeType":"image/png",
			"name":"BRALSOFA_normal",
			"uri":"BRALSOFA_normal.png"
		},
		{
			"mimeType":"image/png",
			"name":"BRALSOFA_baseColor",
			"uri":"BRALSOFA_baseColor.png"
		}
	],
	"accessors":[
		{
			"bufferView":0,
			"componentType":5126,
			"count":30057,
			"max":[
				205036.828125,
				108276.9140625,
				27284.7265625
			],
			"min":[
				-204914.34375,
				-1142.60009765625,
				-115003.765625
			],
			"type":"VEC3"
		},
		{
			"bufferView":1,
			"componentType":5126,
			"count":30057,
			"type":"VEC3"
		},
		{
			"bufferView":2,
			"componentType":5126,
			"count":30057,
			"type":"VEC2"
		},
		{
			"bufferView":3,
			"componentType":5123,
			"count":141498,
			"type":"SCALAR"
		}
	],
	"bufferViews":[
		{
			"buffer":0,
			"byteLength":360684,
			"byteOffset":0,
			"target":34962
		},
		{
			"buffer":0,
			"byteLength":360684,
			"byteOffset":360684,
			"target":34962
		},
		{
			"buffer":0,
			"byteLength":240456,
			"byteOffset":721368,
			"target":34962
		},
		{
			"buffer":0,
			"byteLength":282996,
			"byteOffset":961824,
			"target":34963
		}
	],
	"samplers":[
		{
			"magFilter":9729,
			"minFilter":9987
		}
	],
	"buffers":[
		{
			"byteLength":1244820,
			"uri":"scene.bin"
		}
	]
}
