{
	"asset":{
		"generator":"Khronos glTF Blender I/O v5.0.21",
		"version":"2.0"
	},
	"scene":0,
	"scenes":[
		{
			"name":"Scene",
			"nodes":[
				0
			]
		}
	],
	"nodes":[
		{
			"mesh":0,
			"name":"Object_5",
			"scale":[
				7.504382892875583e-07,
				7.504381756007206e-07,
				7.504381756007206e-07
			]
		}
	],
	"materials":[
		{
			"doubleSided":true,
			"name":"frame.002",
			"pbrMetallicRoughness":{
				"baseColorFactor":[
					0.012294000014662743,
					0.012294000014662743,
					0.012294000014662743,
					1
				],
				"metallicFactor":0
			}
		},
		{
			"doubleSided":true,
			"name":"Metal.002"
		},
		{
			"doubleSided":true,
			"name":"legs.002",
			"pbrMetallicRoughness":{
				"baseColorFactor":[
					0.012294000014662743,
					0.012294000014662743,
					0.012294000014662743,
					1
				],
				"metallicFactor":0.5
			}
		}
	],
	"meshes":[
		{
			"name":"Object_0.007",
			"primitives":[
				{
					"attributes":{
						"POSITION":0,
						"NORMAL":1,
						"TEXCOORD_0":2
					},
					"indices":3,
					"material":0
				},
				{
					"attributes":{
						"POSITION":4,
						"NORMAL":5,
						"TEXCOORD_0":6
					},
					"indices":7,
					"material":1
				},
				{
					"attributes":{
						"POSITION":8,
						"NORMAL":9,
						"TEXCOORD_0":10
					},
					"indices":11,
					"material":2
				}
			]
		}
	],
	"accessors":[
		{
			"bufferView":0,
			"componentType":5126,
			"count":1255,
			"max":[
				904045.9375,
				368453.75,
				224704.296875
			],
			"min":[
				-904045.9375,
				77870.7421875,
				-226595.40625
			],
			"type":"VEC3"
		},
		{
			"bufferView":1,
			"componentType":5126,
			"count":1255,
			"type":"VEC3"
		},
		{
			"bufferView":2,
			"componentType":5126,
			"count":1255,
			"type":"VEC2"
		},
		{
			"bufferView":3,
			"componentType":5123,
			"count":2904,
			"type":"SCALAR"
		},
		{
			"bufferView":4,
			"componentType":5126,
			"count":1267,
			"max":[
				867335,
				310937.5625,
				236485.46875
			],
			"min":[
				-867335,
				301182.3125,
				223595.765625
			],
			"type":"VEC3"
		},
		{
			"bufferView":5,
			"componentType":5126,
			"count":1267,
			"type":"VEC3"
		},
		{
			"bufferView":6,
			"componentType":5126,
			"count":1267,
			"type":"VEC2"
		},
		{
			"bufferView":7,
			"componentType":5123,
			"count":2256,
			"type":"SCALAR"
		},
		{
			"bufferView":8,
			"componentType":5126,
			"count":3928,
			"max":[
				877711.9375,
				77870.6875,
				176389.21875
			],
			"min":[
				-877711.9375,
				180.51263427734375,
				-176389.21875
			],
			"type":"VEC3"
		},
		{
			"bufferView":9,
			"componentType":5126,
			"count":3928,
			"type":"VEC3"
		},
		{
			"bufferView":10,
			"componentType":5126,
			"count":3928,
			"type":"VEC2"
		},
		{
			"bufferView":11,
			"componentType":5123,
			"count":11448,
			"type":"SCALAR"
		}
	],
	"bufferViews":[
		{
			"buffer":0,
			"byteLength":15060,
			"byteOffset":0,
			"target":34962
		},
		{
			"buffer":0,
			"byteLength":15060,
			"byteOffset":15060,
			"target":34962
		},
		{
			"buffer":0,
			"byteLength":10040,
			"byteOffset":30120,
			"target":34962
		},
		{
			"buffer":0,
			"byteLength":5808,
			"byteOffset":40160,
			"target":34963
		},
		{
			"buffer":0,
			"byteLength":15204,
			"byteOffset":45968,
			"target":34962
		},
		{
			"buffer":0,
			"byteLength":15204,
			"byteOffset":61172,
			"target":34962
		},
		{
			"buffer":0,
			"byteLength":10136,
			"byteOffset":76376,
			"target":34962
		},
		{
			"buffer":0,
			"byteLength":4512,
			"byteOffset":86512,
			"target":34963
		},
		{
			"buffer":0,
			"byteLength":47136,
			"byteOffset":91024,
			"target":34962
		},
		{
			"buffer":0,
			"byteLength":47136,
			"byteOffset":138160,
			"target":34962
		},
		{
			"buffer":0,
			"byteLength":31424,
			"byteOffset":185296,
			"target":34962
		},
		{
			"buffer":0,
			"byteLength":22896,
			"byteOffset":216720,
			"target":34963
		}
	],
	"buffers":[
		{
			"byteLength":239616,
			"uri":"scene.bin"
		}
	]
}
