{
	"asset":{
		"generator":"Khronos glTF Blender I/O v5.0.21",
		"version":"2.0"
	},
	"scene":0,
	"scenes":[
		{
			"name":"Scene",
			"nodes":[
				7
			]
		}
	],
	"nodes":[
		{
			"mesh":0,
			"name":"Object_5"
		},
		{
			"mesh":1,
			"name":"Object_6"
		},
		{
			"mesh":2,
			"name":"Object_7"
		},
		{
			"children":[
				0,
				1,
				2
			],
			"name":"TVstand.001_0"
		},
		{
			"children":[
				3
			],
			"name":"TVstand.002_1"
		},
		{
			"children":[
				4
			],
			"name":"GLTF_SceneRootNode",
			"rotation":[
				0.70710688829422,
				0,
				0,
				0.7071066498756409
			]
		},
		{
			"children":[
				5
			],
			"name":"root"
		},
		{
			"children":[
				6
			],
			"name":"Sketchfab_model.001",
			"rotation":[
				-0.70710688829422,
				0,
				0,
				0.7071066498756409
			],
			"scale":[
				1.2770335674285889,
				1.2770336866378784,
				1.2770336866378784
			]
		}
	],
	"materials":[
		{
			"doubleSided":true,
			"name":"frame.001",
			"pbrMetallicRoughness":{
				"baseColorFactor":[
					0.012294000014662743,
					0.012294000014662743,
					0.012294000014662743,
					1
				],
				"metallicFactor":0
			}
		},
		{
			"doubleSided":true,
			"name":"Metal.001"
		},
		{
			"doubleSided":true,
			"name":"legs.001",
			"pbrMetallicRoughness":{
				"baseColorFactor":[
					0.012294000014662743,
					0.012294000014662743,
					0.012294000014662743,
					1
				],
				"metallicFactor":0.5
			}
		}
	],
	"meshes":[
		{
			"name":"Object_0.001",
			"primitives":[
				{
					"attributes":{
						"POSITION":0,
						"NORMAL":1,
						"TEXCOORD_0":2
					},
					"indices":3,
					"material":0
				}
			]
		},
		{
			"name":"Object_1.001",
			"primitives":[
				{
					"attributes":{
						"POSITION":4,
						"NORMAL":5,
						"TEXCOORD_0":6
					},
					"indices":7,
					"material":1
				}
			]
		},
		{
			"name":"Object_2.001",
			"primitives":[
				{
					"attributes":{
						"POSITION":8,
						"NORMAL":9,
						"TEXCOORD_0":10
					},
					"indices":11,
					"material":2
				}
			]
		}
	],
	"accessors":[
		{
			"bufferView":0,
			"componentType":5126,
			"count":1246,
			"max":[
				904.0460205078125,
				368.4537658691406,
				224.70431518554688
			],
			"min":[
				-904.0460205078125,
				77.8707504272461,
				-226.5954132080078
			],
			"type":"VEC3"
		},
		{
			"bufferView":1,
			"componentType":5126,
			"count":1246,
			"type":"VEC3"
		},
		{
			"bufferView":2,
			"componentType":5126,
			"count":1246,
			"type":"VEC2"
		},
		{
			"bufferView":3,
			"componentType":5123,
			"count":2904,
			"type":"SCALAR"
		},
		{
			"bufferView":4,
			"componentType":5126,
			"count":1248,
			"max":[
				867.3350219726562,
				310.9375915527344,
				236.48548889160156
			],
			"min":[
				-867.3350219726562,
				301.1823425292969,
				223.5957794189453
			],
			"type":"VEC3"
		},
		{
			"bufferView":5,
			"componentType":5126,
			"count":1248,
			"type":"VEC3"
		},
		{
			"bufferView":6,
			"componentType":5126,
			"count":1248,
			"type":"VEC2"
		},
		{
			"bufferView":7,
			"componentType":5123,
			"count":2256,
			"type":"SCALAR"
		},
		{
			"bufferView":8,
			"componentType":5126,
			"count":3928,
			"max":[
				877.7119750976562,
				77.87068939208984,
				176.3892364501953
			],
			"min":[
				-877.7119750976562,
				0.18051265180110931,
				-176.3892364501953
			],
			"type":"VEC3"
		},
		{
			"bufferView":9,
			"componentType":5126,
			"count":3928,
			"type":"VEC3"
		},
		{
			"bufferView":10,
			"componentType":5126,
			"count":3928,
			"type":"VEC2"
		},
		{
			"bufferView":11,
			"componentType":5123,
			"count":11448,
			"type":"SCALAR"
		}
	],
	"bufferViews":[
		{
			"buffer":0,
			"byteLength":14952,
			"byteOffset":0,
			"target":34962
		},
		{
			"buffer":0,
			"byteLength":14952,
			"byteOffset":14952,
			"target":34962
		},
		{
			"buffer":0,
			"byteLength":9968,
			"byteOffset":29904,
			"target":34962
		},
		{
			"buffer":0,
			"byteLength":5808,
			"byteOffset":39872,
			"target":34963
		},
		{
			"buffer":0,
			"byteLength":14976,
			"byteOffset":45680,
			"target":34962
		},
		{
			"buffer":0,
			"byteLength":14976,
			"byteOffset":60656,
			"target":34962
		},
		{
			"buffer":0,
			"byteLength":9984,
			"byteOffset":75632,
			"target":34962
		},
		{
			"buffer":0,
			"byteLength":4512,
			"byteOffset":85616,
			"target":34963
		},
		{
			"buffer":0,
			"byteLength":47136,
			"byteOffset":90128,
			"target":34962
		},
		{
			"buffer":0,
			"byteLength":47136,
			"byteOffset":137264,
			"target":34962
		},
		{
			"buffer":0,
			"byteLength":31424,
			"byteOffset":184400,
			"target":34962
		},
		{
			"buffer":0,
			"byteLength":22896,
			"byteOffset":215824,
			"target":34963
		}
	],
	"buffers":[
		{
			"byteLength":238720,
			"uri":"scene.bin"
		}
	]
}
