{
	"asset":{
		"generator":"Khronos glTF Blender I/O v5.0.21",
		"version":"2.0"
	},
	"scene":0,
	"scenes":[
		{
			"name":"Scene",
			"nodes":[
				0,
				1,
				2,
				3,
				4,
				5,
				6,
				7,
				11,
				15,
				35,
				39
			]
		}
	],
	"nodes":[
		{
			"mesh":0,
			"name":"Object_12.001",
			"scale":[
				0.0010000000474974513,
				0.0010000000474974513,
				0.0010000000474974513
			]
		},
		{
			"mesh":1,
			"name":"Object_21.001",
			"scale":[
				0.0010000000474974513,
				0.0010000000474974513,
				0.0010000000474974513
			]
		},
		{
			"mesh":2,
			"name":"Object_18.001",
			"scale":[
				0.0010000000474974513,
				0.0010000000474974513,
				0.0010000000474974513
			]
		},
		{
			"mesh":3,
			"name":"Object_6.001",
			"scale":[
				0.0010000000474974513,
				0.0010000000474974513,
				0.0010000000474974513
			]
		},
		{
			"mesh":4,
			"name":"Object_27.001",
			"scale":[
				0.0010000000474974513,
				0.0010000000474974513,
				0.0010000000474974513
			]
		},
		{
			"mesh":5,
			"name":"Object_9.001",
			"scale":[
				0.0010000000474974513,
				0.0010000000474974513,
				0.0010000000474974513
			]
		},
		{
			"mesh":6,
			"name":"Object_15.001",
			"scale":[
				0.0010000000474974513,
				0.0010000000474974513,
				0.0010000000474974513
			]
		},
		{
			"mesh":7,
			"name":"Object_24.001",
			"scale":[
				0.0010000000474974513,
				0.0010000000474974513,
				0.0010000000474974513
			]
		},
		{
			"name":"BRALSOFA"
		},
		{
			"children":[
				8
			],
			"name":"RootNode"
		},
		{
			"children":[
				9
			],
			"name":"54bd5431d7c24a44acf49717d1f745bf.fbx",
			"rotation":[
				0.70710688829422,
				0,
				0,
				0.7071066498756409
			],
			"scale":[
				0.009999998845160007,
				0.009999999776482582,
				0.009999999776482582
			]
		},
		{
			"children":[
				10
			],
			"name":"Sketchfab_model",
			"rotation":[
				-0.5000000596046448,
				-0.4999999403953552,
				-0.5,
				0.5
			],
			"scale":[
				0.00944158062338829,
				0.00944158062338829,
				0.00944158062338829
			]
		},
		{
			"name":"Carpet_LP_2"
		},
		{
			"children":[
				12
			],
			"name":"GLTF_SceneRootNode"
		},
		{
			"children":[
				13
			],
			"name":"root"
		},
		{
			"children":[
				14
			],
			"name":"Sketchfab_model.001",
			"scale":[
				0.0010000000474974513,
				0.0010000000474974513,
				0.0010000000474974513
			]
		},
		{
			"name":"bu_8"
		},
		{
			"children":[
				16
			],
			"name":"bu_7"
		},
		{
			"name":"Cylinder002_10"
		},
		{
			"children":[
				18
			],
			"name":"Cylinder002_9"
		},
		{
			"name":"Cylinder003_14"
		},
		{
			"children":[
				20
			],
			"name":"Cylinder003_13"
		},
		{
			"name":"lvzhi_4"
		},
		{
			"children":[
				22
			],
			"name":"lvzhi_3"
		},
		{
			"name":"qita_2"
		},
		{
			"children":[
				24
			],
			"name":"qita_1"
		},
		{
			"name":"zhuoyi_6"
		},
		{
			"children":[
				26
			],
			"name":"zhuoyi_5"
		},
		{
			"name":"\ufffd\ufffd\ufffd\ufffd\ufffd\ufffd003_12"
		},
		{
			"children":[
				28
			],
			"name":"\ufffd\ufffd\ufffd\ufffd\ufffd\ufffd003_11"
		},
		{
			"name":"\ufffd\ufffd\ufffd\ufffd\ufffd\ufffd004_16"
		},
		{
			"children":[
				30
			],
			"name":"\ufffd\ufffd\ufffd\ufffd\ufffd\ufffd004_15"
		},
		{
			"children":[
				17,
				19,
				21,
				23,
				25,
				27,
				29,
				31
			],
			"name":"root_0"
		},
		{
			"children":[
				32
			],
			"name":"GLTF_SceneRootNode.001"
		},
		{
			"children":[
				33
			],
			"name":"root.001"
		},
		{
			"children":[
				34
			],
			"name":"Sketchfab_model.002",
			"scale":[
				0.0010000000474974513,
				0.0010000000474974513,
				0.0010000000474974513
			]
		},
		{
			"name":"4 L",
			"scale":[
				100,
				99.99998474121094,
				99.99998474121094
			]
		},
		{
			"children":[
				36
			],
			"name":"RootNode.001"
		},
		{
			"children":[
				37
			],
			"name":"1d9a38fb62eb4ed1bb8e6fe730a59a66.fbx",
			"rotation":[
				0.70710688829422,
				0,
				0,
				0.7071066498756409
			],
			"scale":[
				0.009999998845160007,
				0.010000002570450306,
				0.010000002570450306
			]
		},
		{
			"children":[
				38
			],
			"name":"Sketchfab_model.003",
			"rotation":[
				-0.70710688829422,
				0,
				0,
				0.7071066498756409
			],
			"scale":[
				1.1216866369068157e-05,
				1.1216867278562859e-05,
				1.1216867278562859e-05
			]
		}
	],
	"materials":[
		{
			"doubleSided":true,
			"name":"zhuoyi.001",
			"pbrMetallicRoughness":{
				"metallicFactor":0,
				"roughnessFactor":0.5
			}
		},
		{
			"doubleSided":true,
			"name":"niunai.001",
			"pbrMetallicRoughness":{
				"metallicFactor":0,
				"roughnessFactor":0.5
			}
		},
		{
			"alphaMode":"BLEND",
			"doubleSided":true,
			"name":"boli.001",
			"pbrMetallicRoughness":{
				"metallicFactor":0,
				"roughnessFactor":0.5
			}
		},
		{
			"doubleSided":true,
			"name":"qita.001",
			"pbrMetallicRoughness":{
				"metallicFactor":0,
				"roughnessFactor":0.5
			}
		},
		{
			"doubleSided":true,
			"name":"lvzhi.001",
			"pbrMetallicRoughness":{
				"metallicFactor":0,
				"roughnessFactor":0.5
			}
		},
		{
			"doubleSided":true,
			"name":"material.002",
			"pbrMetallicRoughness":{
				"metallicFactor":0,
				"roughnessFactor":0.5
			}
		}
	],
	"meshes":[
		{
			"name":"Object_2.001",
			"primitives":[
				{
					"attributes":{
						"POSITION":0,
						"NORMAL":1,
						"TEXCOORD_0":2,
						"TEXCOORD_1":3,
						"TEXCOORD_2":4,
						"TEXCOORD_3":5,
						"TEXCOORD_4":6
					},
					"indices":7,
					"material":0
				}
			]
		},
		{
			"name":"Object_5.002",
			"primitives":[
				{
					"attributes":{
						"POSITION":8,
						"NORMAL":9,
						"TEXCOORD_0":10,
						"TEXCOORD_1":11,
						"TEXCOORD_2":12,
						"TEXCOORD_3":13,
						"TEXCOORD_4":14
					},
					"indices":15,
					"material":1
				}
			]
		},
		{
			"name":"Object_4.002",
			"primitives":[
				{
					"attributes":{
						"POSITION":16,
						"NORMAL":17,
						"TEXCOORD_0":18,
						"TEXCOORD_1":19,
						"TEXCOORD_2":20,
						"TEXCOORD_3":21,
						"TEXCOORD_4":22
					},
					"indices":23,
					"material":2
				}
			]
		},
		{
			"name":"Object_0.001",
			"primitives":[
				{
					"attributes":{
						"POSITION":24,
						"NORMAL":25,
						"TEXCOORD_0":26,
						"TEXCOORD_1":27,
						"TEXCOORD_2":28,
						"TEXCOORD_3":29,
						"TEXCOORD_4":30
					},
					"indices":31,
					"material":3
				}
			]
		},
		{
			"name":"Object_7.002",
			"primitives":[
				{
					"attributes":{
						"POSITION":32,
						"NORMAL":33,
						"TEXCOORD_0":34,
						"TEXCOORD_1":35,
						"TEXCOORD_2":36,
						"TEXCOORD_3":37,
						"TEXCOORD_4":38
					},
					"indices":15,
					"material":1
				}
			]
		},
		{
			"name":"Object_1.001",
			"primitives":[
				{
					"attributes":{
						"POSITION":39,
						"NORMAL":40,
						"TEXCOORD_0":41,
						"TEXCOORD_1":42,
						"TEXCOORD_2":43,
						"TEXCOORD_3":44,
						"TEXCOORD_4":45
					},
					"indices":46,
					"material":4
				}
			]
		},
		{
			"name":"Object_3.002",
			"primitives":[
				{
					"attributes":{
						"POSITION":47,
						"NORMAL":48,
						"TEXCOORD_0":49,
						"TEXCOORD_1":50,
						"TEXCOORD_2":51,
						"TEXCOORD_3":52,
						"TEXCOORD_4":53
					},
					"indices":54,
					"material":5
				}
			]
		},
		{
			"name":"Object_6.002",
			"primitives":[
				{
					"attributes":{
						"POSITION":55,
						"NORMAL":56,
						"TEXCOORD_0":57,
						"TEXCOORD_1":58,
						"TEXCOORD_2":59,
						"TEXCOORD_3":60,
						"TEXCOORD_4":61
					},
					"indices":23,
					"material":2
				}
			]
		}
	],
	"accessors":[
		{
			"bufferView":0,
			"componentType":5126,
			"count":52048,
			"max":[
				719.3622436523438,
				883.5614013671875,
				980.451904296875
			],
			"min":[
				-719.7198486328125,
				0.39361572265625,
				-922.753662109375
			],
			"type":"VEC3"
		},
		{
			"bufferView":1,
			"componentType":5126,
			"count":52048,
			"type":"VEC3"
		},
		{
			"bufferView":2,
			"componentType":5126,
			"count":52048,
			"type":"VEC2"
		},
		{
			"bufferView":3,
			"componentType":5126,
			"count":52048,
			"type":"VEC2"
		},
		{
			"bufferView":4,
			"componentType":5126,
			"count":52048,
			"type":"VEC2"
		},
		{
			"bufferView":5,
			"componentType":5126,
			"count":52048,
			"type":"VEC2"
		},
		{
			"bufferView":6,
			"componentType":5126,
			"count":52048,
			"type":"VEC2"
		},
		{
			"bufferView":7,
			"componentType":5123,
			"count":292284,
			"type":"SCALAR"
		},
		{
			"bufferView":8,
			"componentType":5126,
			"count":744,
			"max":[
				182.53073120117188,
				771.0576171875,
				-195.61175537109375
			],
			"min":[
				123.03556060791016,
				724.6751098632812,
				-255.10696411132812
			],
			"type":"VEC3"
		},
		{
			"bufferView":9,
			"componentType":5126,
			"count":744,
			"type":"VEC3"
		},
		{
			"bufferView":10,
			"componentType":5126,
			"count":744,
			"type":"VEC2"
		},
		{
			"bufferView":11,
			"componentType":5126,
			"count":744,
			"type":"VEC2"
		},
		{
			"bufferView":12,
			"componentType":5126,
			"count":744,
			"type":"VEC2"
		},
		{
			"bufferView":13,
			"componentType":5126,
			"count":744,
			"type":"VEC2"
		},
		{
			"bufferView":14,
			"componentType":5126,
			"count":744,
			"type":"VEC2"
		},
		{
			"bufferView":15,
			"componentType":5123,
			"count":3648,
			"type":"SCALAR"
		},
		{
			"bufferView":16,
			"componentType":5126,
			"count":1328,
			"max":[
				185.01931762695312,
				795.9794921875,
				-193.16940307617188
			],
			"min":[
				120.6765365600586,
				716.8521118164062,
				-257.53662109375
			],
			"type":"VEC3"
		},
		{
			"bufferView":17,
			"componentType":5126,
			"count":1328,
			"type":"VEC3"
		},
		{
			"bufferView":18,
			"componentType":5126,
			"count":1328,
			"type":"VEC2"
		},
		{
			"bufferView":19,
			"componentType":5126,
			"count":1328,
			"type":"VEC2"
		},
		{
			"bufferView":20,
			"componentType":5126,
			"count":1328,
			"type":"VEC2"
		},
		{
			"bufferView":21,
			"componentType":5126,
			"count":1328,
			"type":"VEC2"
		},
		{
			"bufferView":22,
			"componentType":5126,
			"count":1328,
			"type":"VEC2"
		},
		{
			"bufferView":23,
			"componentType":5123,
			"count":6840,
			"type":"SCALAR"
		},
		{
			"bufferView":24,
			"componentType":5126,
			"count":56331,
			"max":[
				462.5376281738281,
				1184.9482421875,
				360.1933288574219
			],
			"min":[
				-539.1943359375,
				715.5643920898438,
				-358.8840637207031
			],
			"type":"VEC3"
		},
		{
			"bufferView":25,
			"componentType":5126,
			"count":56331,
			"type":"VEC3"
		},
		{
			"bufferView":26,
			"componentType":5126,
			"count":56331,
			"type":"VEC2"
		},
		{
			"bufferView":27,
			"componentType":5126,
			"count":56331,
			"type":"VEC2"
		},
		{
			"bufferView":28,
			"componentType":5126,
			"count":56331,
			"type":"VEC2"
		},
		{
			"bufferView":29,
			"componentType":5126,
			"count":56331,
			"type":"VEC2"
		},
		{
			"bufferView":30,
			"componentType":5126,
			"count":56331,
			"type":"VEC2"
		},
		{
			"bufferView":31,
			"componentType":5123,
			"count":319146,
			"type":"SCALAR"
		},
		{
			"bufferView":32,
			"componentType":5126,
			"count":744,
			"max":[
				-74.47039031982422,
				771.0576171875,
				265.24786376953125
			],
			"min":[
				-133.96556091308594,
				724.6751098632812,
				205.752685546875
			],
			"type":"VEC3"
		},
		{
			"bufferView":33,
			"componentType":5126,
			"count":744,
			"type":"VEC3"
		},
		{
			"bufferView":34,
			"componentType":5126,
			"count":744,
			"type":"VEC2"
		},
		{
			"bufferView":35,
			"componentType":5126,
			"count":744,
			"type":"VEC2"
		},
		{
			"bufferView":36,
			"componentType":5126,
			"count":744,
			"type":"VEC2"
		},
		{
			"bufferView":37,
			"componentType":5126,
			"count":744,
			"type":"VEC2"
		},
		{
			"bufferView":38,
			"componentType":5126,
			"count":744,
			"type":"VEC2"
		},
		{
			"bufferView":39,
			"componentType":5126,
			"count":10517,
			"max":[
				219.79254150390625,
				1197.778564453125,
				179.89013671875
			],
			"min":[
				-198.8604278564453,
				719.5491333007812,
				-194.17169189453125
			],
			"type":"VEC3"
		},
		{
			"bufferView":40,
			"componentType":5126,
			"count":10517,
			"type":"VEC3"
		},
		{
			"bufferView":41,
			"componentType":5126,
			"count":10517,
			"type":"VEC2"
		},
		{
			"bufferView":42,
			"componentType":5126,
			"count":10517,
			"type":"VEC2"
		},
		{
			"bufferView":43,
			"componentType":5126,
			"count":10517,
			"type":"VEC2"
		},
		{
			"bufferView":44,
			"componentType":5126,
			"count":10517,
			"type":"VEC2"
		},
		{
			"bufferView":45,
			"componentType":5126,
			"count":10517,
			"type":"VEC2"
		},
		{
			"bufferView":46,
			"componentType":5123,
			"count":40650,
			"type":"SCALAR"
		},
		{
			"bufferView":47,
			"componentType":5126,
			"count":2394,
			"max":[
				723.5429077148438,
				719.2675170898438,
				153.779541015625
			],
			"min":[
				-723.5429077148438,
				423.77838134765625,
				-156.13613891601562
			],
			"type":"VEC3"
		},
		{
			"bufferView":48,
			"componentType":5126,
			"count":2394,
			"type":"VEC3"
		},
		{
			"bufferView":49,
			"componentType":5126,
			"count":2394,
			"type":"VEC2"
		},
		{
			"bufferView":50,
			"componentType":5126,
			"count":2394,
			"type":"VEC2"
		},
		{
			"bufferView":51,
			"componentType":5126,
			"count":2394,
			"type":"VEC2"
		},
		{
			"bufferView":52,
			"componentType":5126,
			"count":2394,
			"type":"VEC2"
		},
		{
			"bufferView":53,
			"componentType":5126,
			"count":2394,
			"type":"VEC2"
		},
		{
			"bufferView":54,
			"componentType":5123,
			"count":13440,
			"type":"SCALAR"
		},
		{
			"bufferView":55,
			"componentType":5126,
			"count":1328,
			"max":[
				-71.9817886352539,
				795.9794921875,
				267.6902160644531
			],
			"min":[
				-136.32456970214844,
				716.8521118164062,
				203.32296752929688
			],
			"type":"VEC3"
		},
		{
			"bufferView":56,
			"componentType":5126,
			"count":1328,
			"type":"VEC3"
		},
		{
			"bufferView":57,
			"componentType":5126,
			"count":1328,
			"type":"VEC2"
		},
		{
			"bufferView":58,
			"componentType":5126,
			"count":1328,
			"type":"VEC2"
		},
		{
			"bufferView":59,
			"componentType":5126,
			"count":1328,
			"type":"VEC2"
		},
		{
			"bufferView":60,
			"componentType":5126,
			"count":1328,
			"type":"VEC2"
		},
		{
			"bufferView":61,
			"componentType":5126,
			"count":1328,
			"type":"VEC2"
		}
	],
	"bufferViews":[
		{
			"buffer":0,
			"byteLength":624576,
			"byteOffset":0,
			"target":34962
		},
		{
			"buffer":0,
			"byteLength":624576,
			"byteOffset":624576,
			"target":34962
		},
		{
			"buffer":0,
			"byteLength":416384,
			"byteOffset":1249152,
			"target":34962
		},
		{
			"buffer":0,
			"byteLength":416384,
			"byteOffset":1665536,
			"target":34962
		},
		{
			"buffer":0,
			"byteLength":416384,
			"byteOffset":2081920,
			"target":34962
		},
		{
			"buffer":0,
			"byteLength":416384,
			"byteOffset":2498304,
			"target":34962
		},
		{
			"buffer":0,
			"byteLength":416384,
			"byteOffset":2914688,
			"target":34962
		},
		{
			"buffer":0,
			"byteLength":584568,
			"byteOffset":3331072,
			"target":34963
		},
		{
			"buffer":0,
			"byteLength":8928,
			"byteOffset":3915640,
			"target":34962
		},
		{
			"buffer":0,
			"byteLength":8928,
			"byteOffset":3924568,
			"target":34962
		},
		{
			"buffer":0,
			"byteLength":5952,
			"byteOffset":3933496,
			"target":34962
		},
		{
			"buffer":0,
			"byteLength":5952,
			"byteOffset":3939448,
			"target":34962
		},
		{
			"buffer":0,
			"byteLength":5952,
			"byteOffset":3945400,
			"target":34962
		},
		{
			"buffer":0,
			"byteLength":5952,
			"byteOffset":3951352,
			"target":34962
		},
		{
			"buffer":0,
			"byteLength":5952,
			"byteOffset":3957304,
			"target":34962
		},
		{
			"buffer":0,
			"byteLength":7296,
			"byteOffset":3963256,
			"target":34963
		},
		{
			"buffer":0,
			"byteLength":15936,
			"byteOffset":3970552,
			"target":34962
		},
		{
			"buffer":0,
			"byteLength":15936,
			"byteOffset":3986488,
			"target":34962
		},
		{
			"buffer":0,
			"byteLength":10624,
			"byteOffset":4002424,
			"target":34962
		},
		{
			"buffer":0,
			"byteLength":10624,
			"byteOffset":4013048,
			"target":34962
		},
		{
			"buffer":0,
			"byteLength":10624,
			"byteOffset":4023672,
			"target":34962
		},
		{
			"buffer":0,
			"byteLength":10624,
			"byteOffset":4034296,
			"target":34962
		},
		{
			"buffer":0,
			"byteLength":10624,
			"byteOffset":4044920,
			"target":34962
		},
		{
			"buffer":0,
			"byteLength":13680,
			"byteOffset":4055544,
			"target":34963
		},
		{
			"buffer":0,
			"byteLength":675972,
			"byteOffset":4069224,
			"target":34962
		},
		{
			"buffer":0,
			"byteLength":675972,
			"byteOffset":4745196,
			"target":34962
		},
		{
			"buffer":0,
			"byteLength":450648,
			"byteOffset":5421168,
			"target":34962
		},
		{
			"buffer":0,
			"byteLength":450648,
			"byteOffset":5871816,
			"target":34962
		},
		{
			"buffer":0,
			"byteLength":450648,
			"byteOffset":6322464,
			"target":34962
		},
		{
			"buffer":0,
			"byteLength":450648,
			"byteOffset":6773112,
			"target":34962
		},
		{
			"buffer":0,
			"byteLength":450648,
			"byteOffset":7223760,
			"target":34962
		},
		{
			"buffer":0,
			"byteLength":638292,
			"byteOffset":7674408,
			"target":34963
		},
		{
			"buffer":0,
			"byteLength":8928,
			"byteOffset":8312700,
			"target":34962
		},
		{
			"buffer":0,
			"byteLength":8928,
			"byteOffset":8321628,
			"target":34962
		},
		{
			"buffer":0,
			"byteLength":5952,
			"byteOffset":8330556,
			"target":34962
		},
		{
			"buffer":0,
			"byteLength":5952,
			"byteOffset":8336508,
			"target":34962
		},
		{
			"buffer":0,
			"byteLength":5952,
			"byteOffset":8342460,
			"target":34962
		},
		{
			"buffer":0,
			"byteLength":5952,
			"byteOffset":8348412,
			"target":34962
		},
		{
			"buffer":0,
			"byteLength":5952,
			"byteOffset":8354364,
			"target":34962
		},
		{
			"buffer":0,
			"byteLength":126204,
			"byteOffset":8360316,
			"target":34962
		},
		{
			"buffer":0,
			"byteLength":126204,
			"byteOffset":8486520,
			"target":34962
		},
		{
			"buffer":0,
			"byteLength":84136,
			"byteOffset":8612724,
			"target":34962
		},
		{
			"buffer":0,
			"byteLength":84136,
			"byteOffset":8696860,
			"target":34962
		},
		{
			"buffer":0,
			"byteLength":84136,
			"byteOffset":8780996,
			"target":34962
		},
		{
			"buffer":0,
			"byteLength":84136,
			"byteOffset":8865132,
			"target":34962
		},
		{
			"buffer":0,
			"byteLength":84136,
			"byteOffset":8949268,
			"target":34962
		},
		{
			"buffer":0,
			"byteLength":81300,
			"byteOffset":9033404,
			"target":34963
		},
		{
			"buffer":0,
			"byteLength":28728,
			"byteOffset":9114704,
			"target":34962
		},
		{
			"buffer":0,
			"byteLength":28728,
			"byteOffset":9143432,
			"target":34962
		},
		{
			"buffer":0,
			"byteLength":19152,
			"byteOffset":9172160,
			"target":34962
		},
		{
			"buffer":0,
			"byteLength":19152,
			"byteOffset":9191312,
			"target":34962
		},
		{
			"buffer":0,
			"byteLength":19152,
			"byteOffset":9210464,
			"target":34962
		},
		{
			"buffer":0,
			"byteLength":19152,
			"byteOffset":9229616,
			"target":34962
		},
		{
			"buffer":0,
			"byteLength":19152,
			"byteOffset":9248768,
			"target":34962
		},
		{
			"buffer":0,
			"byteLength":26880,
			"byteOffset":9267920,
			"target":34963
		},
		{
			"buffer":0,
			"byteLength":15936,
			"byteOffset":9294800,
			"target":34962
		},
		{
			"buffer":0,
			"byteLength":15936,
			"byteOffset":9310736,
			"target":34962
		},
		{
			"buffer":0,
			"byteLength":10624,
			"byteOffset":9326672,
			"target":34962
		},
		{
			"buffer":0,
			"byteLength":10624,
			"byteOffset":9337296,
			"target":34962
		},
		{
			"buffer":0,
			"byteLength":10624,
			"byteOffset":9347920,
			"target":34962
		},
		{
			"buffer":0,
			"byteLength":10624,
			"byteOffset":9358544,
			"target":34962
		},
		{
			"buffer":0,
			"byteLength":10624,
			"byteOffset":9369168,
			"target":34962
		}
	],
	"buffers":[
		{
			"byteLength":9379792,
			"uri":"scene.bin"
		}
	]
}
