{
	"asset":{
		"generator":"Khronos glTF Blender I/O v5.0.21",
		"version":"2.0"
	},
	"scene":0,
	"scenes":[
		{
			"name":"Scene",
			"nodes":[
				3,
				31
			]
		}
	],
	"nodes":[
		{
			"name":"Carpet_LP_2"
		},
		{
			"children":[
				0
			],
			"name":"GLTF_SceneRootNode"
		},
		{
			"children":[
				1
			],
			"name":"root"
		},
		{
			"children":[
				2
			],
			"name":"Sketchfab_model.001"
		},
		{
			"mesh":0,
			"name":"Object_15"
		},
		{
			"children":[
				4
			],
			"name":"bu_8"
		},
		{
			"children":[
				5
			],
			"name":"bu_7"
		},
		{
			"mesh":1,
			"name":"Object_18"
		},
		{
			"children":[
				7
			],
			"name":"Cylinder002_10"
		},
		{
			"children":[
				8
			],
			"name":"Cylinder002_9"
		},
		{
			"mesh":2,
			"name":"Object_24"
		},
		{
			"children":[
				10
			],
			"name":"Cylinder003_14"
		},
		{
			"children":[
				11
			],
			"name":"Cylinder003_13"
		},
		{
			"mesh":3,
			"name":"Object_9"
		},
		{
			"children":[
				13
			],
			"name":"lvzhi_4"
		},
		{
			"children":[
				14
			],
			"name":"lvzhi_3"
		},
		{
			"mesh":4,
			"name":"Object_6"
		},
		{
			"children":[
				16
			],
			"name":"qita_2"
		},
		{
			"children":[
				17
			],
			"name":"qita_1"
		},
		{
			"mesh":5,
			"name":"Object_12"
		},
		{
			"children":[
				19
			],
			"name":"zhuoyi_6"
		},
		{
			"children":[
				20
			],
			"name":"zhuoyi_5"
		},
		{
			"mesh":6,
			"name":"Object_21"
		},
		{
			"children":[
				22
			],
			"name":"\ufffd\ufffd\ufffd\ufffd\ufffd\ufffd003_12"
		},
		{
			"children":[
				23
			],
			"name":"\ufffd\ufffd\ufffd\ufffd\ufffd\ufffd003_11"
		},
		{
			"mesh":7,
			"name":"Object_27"
		},
		{
			"children":[
				25
			],
			"name":"\ufffd\ufffd\ufffd\ufffd\ufffd\ufffd004_16"
		},
		{
			"children":[
				26
			],
			"name":"\ufffd\ufffd\ufffd\ufffd\ufffd\ufffd004_15"
		},
		{
			"children":[
				6,
				9,
				12,
				15,
				18,
				21,
				24,
				27
			],
			"name":"root_0"
		},
		{
			"children":[
				28
			],
			"name":"GLTF_SceneRootNode.001"
		},
		{
			"children":[
				29
			],
			"name":"root.001"
		},
		{
			"children":[
				30
			],
			"name":"Sketchfab_model.002"
		}
	],
	"materials":[
		{
			"name":"material.001",
			"normalTexture":{
				"index":0
			},
			"occlusionTexture":{
				"index":1
			},
			"pbrMetallicRoughness":{
				"baseColorTexture":{
					"index":2
				},
				"metallicRoughnessTexture":{
					"index":1
				}
			}
		},
		{
			"alphaMode":"BLEND",
			"name":"boli",
			"normalTexture":{
				"index":3
			},
			"occlusionTexture":{
				"index":4
			},
			"pbrMetallicRoughness":{
				"baseColorTexture":{
					"index":5
				},
				"metallicRoughnessTexture":{
					"index":4
				}
			}
		},
		{
			"name":"lvzhi",
			"normalTexture":{
				"index":6
			},
			"occlusionTexture":{
				"index":7
			},
			"pbrMetallicRoughness":{
				"baseColorTexture":{
					"index":8
				},
				"metallicRoughnessTexture":{
					"index":7
				}
			}
		},
		{
			"name":"qita",
			"normalTexture":{
				"index":9
			},
			"occlusionTexture":{
				"index":10
			},
			"pbrMetallicRoughness":{
				"baseColorTexture":{
					"index":11
				},
				"metallicRoughnessTexture":{
					"index":10
				}
			}
		},
		{
			"name":"zhuoyi",
			"normalTexture":{
				"index":12
			},
			"occlusionTexture":{
				"index":13
			},
			"pbrMetallicRoughness":{
				"baseColorTexture":{
					"index":14
				},
				"metallicRoughnessTexture":{
					"index":13
				}
			}
		},
		{
			"name":"niunai",
			"normalTexture":{
				"index":15
			},
			"occlusionTexture":{
				"index":16
			},
			"pbrMetallicRoughness":{
				"baseColorTexture":{
					"index":17
				},
				"metallicRoughnessTexture":{
					"index":16
				}
			}
		}
	],
	"meshes":[
		{
			"name":"Object_3.001",
			"primitives":[
				{
					"attributes":{
						"POSITION":0,
						"NORMAL":1,
						"TEXCOORD_0":2,
						"TEXCOORD_1":3,
						"TEXCOORD_2":4,
						"TEXCOORD_3":5,
						"TEXCOORD_4":6
					},
					"indices":7,
					"material":0
				}
			]
		},
		{
			"name":"Object_4.001",
			"primitives":[
				{
					"attributes":{
						"POSITION":8,
						"NORMAL":9,
						"TEXCOORD_0":10,
						"TEXCOORD_1":11,
						"TEXCOORD_2":12,
						"TEXCOORD_3":13,
						"TEXCOORD_4":14
					},
					"indices":15,
					"material":1
				}
			]
		},
		{
			"name":"Object_6.001",
			"primitives":[
				{
					"attributes":{
						"POSITION":16,
						"NORMAL":17,
						"TEXCOORD_0":18,
						"TEXCOORD_1":19,
						"TEXCOORD_2":20,
						"TEXCOORD_3":21,
						"TEXCOORD_4":22
					},
					"indices":15,
					"material":1
				}
			]
		},
		{
			"name":"Object_1.003",
			"primitives":[
				{
					"attributes":{
						"POSITION":23,
						"NORMAL":24,
						"TEXCOORD_0":25,
						"TEXCOORD_1":26,
						"TEXCOORD_2":27,
						"TEXCOORD_3":28,
						"TEXCOORD_4":29
					},
					"indices":30,
					"material":2
				}
			]
		},
		{
			"name":"Object_0.004",
			"primitives":[
				{
					"attributes":{
						"POSITION":31,
						"NORMAL":32,
						"TEXCOORD_0":33,
						"TEXCOORD_1":34,
						"TEXCOORD_2":35,
						"TEXCOORD_3":36,
						"TEXCOORD_4":37
					},
					"indices":38,
					"material":3
				}
			]
		},
		{
			"name":"Object_2.003",
			"primitives":[
				{
					"attributes":{
						"POSITION":39,
						"NORMAL":40,
						"TEXCOORD_0":41,
						"TEXCOORD_1":42,
						"TEXCOORD_2":43,
						"TEXCOORD_3":44,
						"TEXCOORD_4":45
					},
					"indices":46,
					"material":4
				}
			]
		},
		{
			"name":"Object_5.001",
			"primitives":[
				{
					"attributes":{
						"POSITION":47,
						"NORMAL":48,
						"TEXCOORD_0":49,
						"TEXCOORD_1":50,
						"TEXCOORD_2":51,
						"TEXCOORD_3":52,
						"TEXCOORD_4":53
					},
					"indices":54,
					"material":5
				}
			]
		},
		{
			"name":"Object_7.001",
			"primitives":[
				{
					"attributes":{
						"POSITION":55,
						"NORMAL":56,
						"TEXCOORD_0":57,
						"TEXCOORD_1":58,
						"TEXCOORD_2":59,
						"TEXCOORD_3":60,
						"TEXCOORD_4":61
					},
					"indices":62,
					"material":5
				}
			]
		}
	],
	"textures":[
		{
			"sampler":0,
			"source":0
		},
		{
			"sampler":0,
			"source":1
		},
		{
			"sampler":0,
			"source":2
		},
		{
			"sampler":0,
			"source":3
		},
		{
			"sampler":0,
			"source":4
		},
		{
			"sampler":0,
			"source":5
		},
		{
			"sampler":0,
			"source":6
		},
		{
			"sampler":0,
			"source":7
		},
		{
			"sampler":0,
			"source":8
		},
		{
			"sampler":0,
			"source":9
		},
		{
			"sampler":0,
			"source":10
		},
		{
			"sampler":0,
			"source":11
		},
		{
			"sampler":0,
			"source":12
		},
		{
			"sampler":0,
			"source":13
		},
		{
			"sampler":0,
			"source":14
		},
		{
			"sampler":0,
			"source":15
		},
		{
			"sampler":0,
			"source":16
		},
		{
			"sampler":0,
			"source":17
		}
	],
	"images":[
		{
			"mimeType":"image/png",
			"name":"material_normal.png",
			"uri":"textures/material_normal.png"
		},
		{
			"mimeType":"image/png",
			"name":"material_metallicRoughness.png",
			"uri":"textures/material_metallicRoughness.png"
		},
		{
			"mimeType":"image/png",
			"name":"material_baseColor.png",
			"uri":"textures/material_baseColor.png"
		},
		{
			"mimeType":"image/png",
			"name":"boli_normal.png",
			"uri":"textures/boli_normal.png"
		},
		{
			"mimeType":"image/png",
			"name":"boli_metallicRoughness.png",
			"uri":"textures/boli_metallicRoughness.png"
		},
		{
			"mimeType":"image/png",
			"name":"boli_baseColor.png",
			"uri":"textures/boli_baseColor.png"
		},
		{
			"mimeType":"image/png",
			"name":"lvzhi_normal.png",
			"uri":"textures/lvzhi_normal.png"
		},
		{
			"mimeType":"image/png",
			"name":"lvzhi_metallicRoughness.png",
			"uri":"textures/lvzhi_metallicRoughness.png"
		},
		{
			"mimeType":"image/png",
			"name":"lvzhi_baseColor.png",
			"uri":"textures/lvzhi_baseColor.png"
		},
		{
			"mimeType":"image/png",
			"name":"qita_normal.png",
			"uri":"textures/qita_normal.png"
		},
		{
			"mimeType":"image/png",
			"name":"qita_metallicRoughness.png",
			"uri":"textures/qita_metallicRoughness.png"
		},
		{
			"mimeType":"image/png",
			"name":"qita_baseColor.png",
			"uri":"textures/qita_baseColor.png"
		},
		{
			"mimeType":"image/png",
			"name":"zhuoyi_normal.png",
			"uri":"textures/zhuoyi_normal.png"
		},
		{
			"mimeType":"image/png",
			"name":"zhuoyi_metallicRoughness.png",
			"uri":"textures/zhuoyi_metallicRoughness.png"
		},
		{
			"mimeType":"image/png",
			"name":"zhuoyi_baseColor.png",
			"uri":"textures/zhuoyi_baseColor.png"
		},
		{
			"mimeType":"image/png",
			"name":"niunai_normal.png",
			"uri":"textures/niunai_normal.png"
		},
		{
			"mimeType":"image/png",
			"name":"niunai_metallicRoughness.png",
			"uri":"textures/niunai_metallicRoughness.png"
		},
		{
			"mimeType":"image/png",
			"name":"niunai_baseColor.png",
			"uri":"textures/niunai_baseColor.png"
		}
	],
	"accessors":[
		{
			"bufferView":0,
			"componentType":5126,
			"count":2394,
			"max":[
				723.5429077148438,
				719.2675170898438,
				153.779541015625
			],
			"min":[
				-723.5429077148438,
				423.77838134765625,
				-156.13613891601562
			],
			"type":"VEC3"
		},
		{
			"bufferView":1,
			"componentType":5126,
			"count":2394,
			"type":"VEC3"
		},
		{
			"bufferView":2,
			"componentType":5126,
			"count":2394,
			"type":"VEC2"
		},
		{
			"bufferView":3,
			"componentType":5126,
			"count":2394,
			"type":"VEC2"
		},
		{
			"bufferView":4,
			"componentType":5126,
			"count":2394,
			"type":"VEC2"
		},
		{
			"bufferView":5,
			"componentType":5126,
			"count":2394,
			"type":"VEC2"
		},
		{
			"bufferView":6,
			"componentType":5126,
			"count":2394,
			"type":"VEC2"
		},
		{
			"bufferView":7,
			"componentType":5123,
			"count":13440,
			"type":"SCALAR"
		},
		{
			"bufferView":8,
			"componentType":5126,
			"count":1328,
			"max":[
				185.01931762695312,
				795.9794921875,
				-193.16940307617188
			],
			"min":[
				120.6765365600586,
				716.8521118164062,
				-257.53662109375
			],
			"type":"VEC3"
		},
		{
			"bufferView":9,
			"componentType":5126,
			"count":1328,
			"type":"VEC3"
		},
		{
			"bufferView":10,
			"componentType":5126,
			"count":1328,
			"type":"VEC2"
		},
		{
			"bufferView":11,
			"componentType":5126,
			"count":1328,
			"type":"VEC2"
		},
		{
			"bufferView":12,
			"componentType":5126,
			"count":1328,
			"type":"VEC2"
		},
		{
			"bufferView":13,
			"componentType":5126,
			"count":1328,
			"type":"VEC2"
		},
		{
			"bufferView":14,
			"componentType":5126,
			"count":1328,
			"type":"VEC2"
		},
		{
			"bufferView":15,
			"componentType":5123,
			"count":6840,
			"type":"SCALAR"
		},
		{
			"bufferView":16,
			"componentType":5126,
			"count":1328,
			"max":[
				-71.9817886352539,
				795.9794921875,
				267.6902160644531
			],
			"min":[
				-136.32456970214844,
				716.8521118164062,
				203.32296752929688
			],
			"type":"VEC3"
		},
		{
			"bufferView":17,
			"componentType":5126,
			"count":1328,
			"type":"VEC3"
		},
		{
			"bufferView":18,
			"componentType":5126,
			"count":1328,
			"type":"VEC2"
		},
		{
			"bufferView":19,
			"componentType":5126,
			"count":1328,
			"type":"VEC2"
		},
		{
			"bufferView":20,
			"componentType":5126,
			"count":1328,
			"type":"VEC2"
		},
		{
			"bufferView":21,
			"componentType":5126,
			"count":1328,
			"type":"VEC2"
		},
		{
			"bufferView":22,
			"componentType":5126,
			"count":1328,
			"type":"VEC2"
		},
		{
			"bufferView":23,
			"componentType":5126,
			"count":10517,
			"max":[
				219.79254150390625,
				1197.778564453125,
				179.89013671875
			],
			"min":[
				-198.8604278564453,
				719.5491333007812,
				-194.17169189453125
			],
			"type":"VEC3"
		},
		{
			"bufferView":24,
			"componentType":5126,
			"count":10517,
			"type":"VEC3"
		},
		{
			"bufferView":25,
			"componentType":5126,
			"count":10517,
			"type":"VEC2"
		},
		{
			"bufferView":26,
			"componentType":5126,
			"count":10517,
			"type":"VEC2"
		},
		{
			"bufferView":27,
			"componentType":5126,
			"count":10517,
			"type":"VEC2"
		},
		{
			"bufferView":28,
			"componentType":5126,
			"count":10517,
			"type":"VEC2"
		},
		{
			"bufferView":29,
			"componentType":5126,
			"count":10517,
			"type":"VEC2"
		},
		{
			"bufferView":30,
			"componentType":5123,
			"count":40650,
			"type":"SCALAR"
		},
		{
			"bufferView":31,
			"componentType":5126,
			"count":59306,
			"max":[
				462.5376281738281,
				1184.9482421875,
				360.1933288574219
			],
			"min":[
				-539.1943359375,
				715.5643920898438,
				-358.8840637207031
			],
			"type":"VEC3"
		},
		{
			"bufferView":32,
			"componentType":5126,
			"count":59306,
			"type":"VEC3"
		},
		{
			"bufferView":33,
			"componentType":5126,
			"count":59306,
			"type":"VEC2"
		},
		{
			"bufferView":34,
			"componentType":5126,
			"count":59306,
			"type":"VEC2"
		},
		{
			"bufferView":35,
			"componentType":5126,
			"count":59306,
			"type":"VEC2"
		},
		{
			"bufferView":36,
			"componentType":5126,
			"count":59306,
			"type":"VEC2"
		},
		{
			"bufferView":37,
			"componentType":5126,
			"count":59306,
			"type":"VEC2"
		},
		{
			"bufferView":38,
			"componentType":5123,
			"count":319146,
			"type":"SCALAR"
		},
		{
			"bufferView":39,
			"componentType":5126,
			"count":52780,
			"max":[
				719.3622436523438,
				883.5614013671875,
				980.451904296875
			],
			"min":[
				-719.7198486328125,
				0.39361572265625,
				-922.753662109375
			],
			"type":"VEC3"
		},
		{
			"bufferView":40,
			"componentType":5126,
			"count":52780,
			"type":"VEC3"
		},
		{
			"bufferView":41,
			"componentType":5126,
			"count":52780,
			"type":"VEC2"
		},
		{
			"bufferView":42,
			"componentType":5126,
			"count":52780,
			"type":"VEC2"
		},
		{
			"bufferView":43,
			"componentType":5126,
			"count":52780,
			"type":"VEC2"
		},
		{
			"bufferView":44,
			"componentType":5126,
			"count":52780,
			"type":"VEC2"
		},
		{
			"bufferView":45,
			"componentType":5126,
			"count":52780,
			"type":"VEC2"
		},
		{
			"bufferView":46,
			"componentType":5123,
			"count":292284,
			"type":"SCALAR"
		},
		{
			"bufferView":47,
			"componentType":5126,
			"count":777,
			"max":[
				182.53073120117188,
				771.0576171875,
				-195.61175537109375
			],
			"min":[
				123.03556060791016,
				724.6751098632812,
				-255.10696411132812
			],
			"type":"VEC3"
		},
		{
			"bufferView":48,
			"componentType":5126,
			"count":777,
			"type":"VEC3"
		},
		{
			"bufferView":49,
			"componentType":5126,
			"count":777,
			"type":"VEC2"
		},
		{
			"bufferView":50,
			"componentType":5126,
			"count":777,
			"type":"VEC2"
		},
		{
			"bufferView":51,
			"componentType":5126,
			"count":777,
			"type":"VEC2"
		},
		{
			"bufferView":52,
			"componentType":5126,
			"count":777,
			"type":"VEC2"
		},
		{
			"bufferView":53,
			"componentType":5126,
			"count":777,
			"type":"VEC2"
		},
		{
			"bufferView":54,
			"componentType":5123,
			"count":3648,
			"type":"SCALAR"
		},
		{
			"bufferView":55,
			"componentType":5126,
			"count":777,
			"max":[
				-74.47039031982422,
				771.0576171875,
				265.24786376953125
			],
			"min":[
				-133.96556091308594,
				724.6751098632812,
				205.752685546875
			],
			"type":"VEC3"
		},
		{
			"bufferView":56,
			"componentType":5126,
			"count":777,
			"type":"VEC3"
		},
		{
			"bufferView":57,
			"componentType":5126,
			"count":777,
			"type":"VEC2"
		},
		{
			"bufferView":58,
			"componentType":5126,
			"count":777,
			"type":"VEC2"
		},
		{
			"bufferView":59,
			"componentType":5126,
			"count":777,
			"type":"VEC2"
		},
		{
			"bufferView":60,
			"componentType":5126,
			"count":777,
			"type":"VEC2"
		},
		{
			"bufferView":61,
			"componentType":5126,
			"count":777,
			"type":"VEC2"
		},
		{
			"bufferView":62,
			"componentType":5123,
			"count":3648,
			"type":"SCALAR"
		}
	],
	"bufferViews":[
		{
			"buffer":0,
			"byteLength":28728,
			"byteOffset":0,
			"target":34962
		},
		{
			"buffer":0,
			"byteLength":28728,
			"byteOffset":28728,
			"target":34962
		},
		{
			"buffer":0,
			"byteLength":19152,
			"byteOffset":57456,
			"target":34962
		},
		{
			"buffer":0,
			"byteLength":19152,
			"byteOffset":76608,
			"target":34962
		},
		{
			"buffer":0,
			"byteLength":19152,
			"byteOffset":95760,
			"target":34962
		},
		{
			"buffer":0,
			"byteLength":19152,
			"byteOffset":114912,
			"target":34962
		},
		{
			"buffer":0,
			"byteLength":19152,
			"byteOffset":134064,
			"target":34962
		},
		{
			"buffer":0,
			"byteLength":26880,
			"byteOffset":153216,
			"target":34963
		},
		{
			"buffer":0,
			"byteLength":15936,
			"byteOffset":180096,
			"target":34962
		},
		{
			"buffer":0,
			"byteLength":15936,
			"byteOffset":196032,
			"target":34962
		},
		{
			"buffer":0,
			"byteLength":10624,
			"byteOffset":211968,
			"target":34962
		},
		{
			"buffer":0,
			"byteLength":10624,
			"byteOffset":222592,
			"target":34962
		},
		{
			"buffer":0,
			"byteLength":10624,
			"byteOffset":233216,
			"target":34962
		},
		{
			"buffer":0,
			"byteLength":10624,
			"byteOffset":243840,
			"target":34962
		},
		{
			"buffer":0,
			"byteLength":10624,
			"byteOffset":254464,
			"target":34962
		},
		{
			"buffer":0,
			"byteLength":13680,
			"byteOffset":265088,
			"target":34963
		},
		{
			"buffer":0,
			"byteLength":15936,
			"byteOffset":278768,
			"target":34962
		},
		{
			"buffer":0,
			"byteLength":15936,
			"byteOffset":294704,
			"target":34962
		},
		{
			"buffer":0,
			"byteLength":10624,
			"byteOffset":310640,
			"target":34962
		},
		{
			"buffer":0,
			"byteLength":10624,
			"byteOffset":321264,
			"target":34962
		},
		{
			"buffer":0,
			"byteLength":10624,
			"byteOffset":331888,
			"target":34962
		},
		{
			"buffer":0,
			"byteLength":10624,
			"byteOffset":342512,
			"target":34962
		},
		{
			"buffer":0,
			"byteLength":10624,
			"byteOffset":353136,
			"target":34962
		},
		{
			"buffer":0,
			"byteLength":126204,
			"byteOffset":363760,
			"target":34962
		},
		{
			"buffer":0,
			"byteLength":126204,
			"byteOffset":489964,
			"target":34962
		},
		{
			"buffer":0,
			"byteLength":84136,
			"byteOffset":616168,
			"target":34962
		},
		{
			"buffer":0,
			"byteLength":84136,
			"byteOffset":700304,
			"target":34962
		},
		{
			"buffer":0,
			"byteLength":84136,
			"byteOffset":784440,
			"target":34962
		},
		{
			"buffer":0,
			"byteLength":84136,
			"byteOffset":868576,
			"target":34962
		},
		{
			"buffer":0,
			"byteLength":84136,
			"byteOffset":952712,
			"target":34962
		},
		{
			"buffer":0,
			"byteLength":81300,
			"byteOffset":1036848,
			"target":34963
		},
		{
			"buffer":0,
			"byteLength":711672,
			"byteOffset":1118148,
			"target":34962
		},
		{
			"buffer":0,
			"byteLength":711672,
			"byteOffset":1829820,
			"target":34962
		},
		{
			"buffer":0,
			"byteLength":474448,
			"byteOffset":2541492,
			"target":34962
		},
		{
			"buffer":0,
			"byteLength":474448,
			"byteOffset":3015940,
			"target":34962
		},
		{
			"buffer":0,
			"byteLength":474448,
			"byteOffset":3490388,
			"target":34962
		},
		{
			"buffer":0,
			"byteLength":474448,
			"byteOffset":3964836,
			"target":34962
		},
		{
			"buffer":0,
			"byteLength":474448,
			"byteOffset":4439284,
			"target":34962
		},
		{
			"buffer":0,
			"byteLength":638292,
			"byteOffset":4913732,
			"target":34963
		},
		{
			"buffer":0,
			"byteLength":633360,
			"byteOffset":5552024,
			"target":34962
		},
		{
			"buffer":0,
			"byteLength":633360,
			"byteOffset":6185384,
			"target":34962
		},
		{
			"buffer":0,
			"byteLength":422240,
			"byteOffset":6818744,
			"target":34962
		},
		{
			"buffer":0,
			"byteLength":422240,
			"byteOffset":7240984,
			"target":34962
		},
		{
			"buffer":0,
			"byteLength":422240,
			"byteOffset":7663224,
			"target":34962
		},
		{
			"buffer":0,
			"byteLength":422240,
			"byteOffset":8085464,
			"target":34962
		},
		{
			"buffer":0,
			"byteLength":422240,
			"byteOffset":8507704,
			"target":34962
		},
		{
			"buffer":0,
			"byteLength":584568,
			"byteOffset":8929944,
			"target":34963
		},
		{
			"buffer":0,
			"byteLength":9324,
			"byteOffset":9514512,
			"target":34962
		},
		{
			"buffer":0,
			"byteLength":9324,
			"byteOffset":9523836,
			"target":34962
		},
		{
			"buffer":0,
			"byteLength":6216,
			"byteOffset":9533160,
			"target":34962
		},
		{
			"buffer":0,
			"byteLength":6216,
			"byteOffset":9539376,
			"target":34962
		},
		{
			"buffer":0,
			"byteLength":6216,
			"byteOffset":9545592,
			"target":34962
		},
		{
			"buffer":0,
			"byteLength":6216,
			"byteOffset":9551808,
			"target":34962
		},
		{
			"buffer":0,
			"byteLength":6216,
			"byteOffset":9558024,
			"target":34962
		},
		{
			"buffer":0,
			"byteLength":7296,
			"byteOffset":9564240,
			"target":34963
		},
		{
			"buffer":0,
			"byteLength":9324,
			"byteOffset":9571536,
			"target":34962
		},
		{
			"buffer":0,
			"byteLength":9324,
			"byteOffset":9580860,
			"target":34962
		},
		{
			"buffer":0,
			"byteLength":6216,
			"byteOffset":9590184,
			"target":34962
		},
		{
			"buffer":0,
			"byteLength":6216,
			"byteOffset":9596400,
			"target":34962
		},
		{
			"buffer":0,
			"byteLength":6216,
			"byteOffset":9602616,
			"target":34962
		},
		{
			"buffer":0,
			"byteLength":6216,
			"byteOffset":9608832,
			"target":34962
		},
		{
			"buffer":0,
			"byteLength":6216,
			"byteOffset":9615048,
			"target":34962
		},
		{
			"buffer":0,
			"byteLength":7296,
			"byteOffset":9621264,
			"target":34963
		}
	],
	"samplers":[
		{
			"magFilter":9729,
			"minFilter":9987
		}
	],
	"buffers":[
		{
			"byteLength":9628560,
			"uri":"scene.bin"
		}
	]
}
