{
	"asset":{
		"generator":"Khronos glTF Blender I/O v5.0.21",
		"version":"2.0"
	},
	"scene":0,
	"scenes":[
		{
			"name":"Scene",
			"nodes":[
				0
			]
		}
	],
	"nodes":[
		{
			"mesh":0,
			"name":"A38_Window_WC_007_Mat_A38_Window_Wall_001_0",
			"scale":[
				0.0010000000474974513,
				0.0010000000474974513,
				0.0010000000474974513
			]
		}
	],
	"materials":[
		{
			"doubleSided":true,
			"name":"Mat_A38_Window_Wall_001.001",
			"pbrMetallicRoughness":{
				"baseColorFactor":[
					0.9529410004615784,
					0.9529410004615784,
					0.9529410004615784,
					1
				],
				"metallicFactor":0,
				"roughnessFactor":0.8929713368415833
			}
		},
		{
			"doubleSided":true,
			"name":"Mat_A38_Window_Frame_002.001",
			"pbrMetallicRoughness":{
				"baseColorFactor":[
					0.1450980007648468,
					0.1450980007648468,
					0.1450980007648468,
					1
				],
				"metallicFactor":0.4468368887901306,
				"roughnessFactor":0.7604801654815674
			}
		},
		{
			"doubleSided":true,
			"name":"Mat_A38_Window_Frame_001.001",
			"pbrMetallicRoughness":{
				"baseColorFactor":[
					0.756862998008728,
					0.756862998008728,
					0.756862998008728,
					1
				],
				"metallicFactor":0.38586127758026123,
				"roughnessFactor":0.8929713368415833
			}
		},
		{
			"alphaMode":"BLEND",
			"doubleSided":true,
			"name":"Mat_A38_Window_Glass_001.001",
			"pbrMetallicRoughness":{
				"baseColorFactor":[
					0.5882350206375122,
					0.6588240265846252,
					0.7058820128440857,
					0.1114710345864296
				],
				"metallicFactor":0.9102514982223511,
				"roughnessFactor":0
			}
		},
		{
			"alphaMode":"BLEND",
			"doubleSided":true,
			"name":"Mat_A38_Window_Noise_Glass_001.002",
			"pbrMetallicRoughness":{
				"baseColorFactor":[
					0.5882350206375122,
					0.6588240265846252,
					0.7058820128440857,
					0.699999988079071
				],
				"metallicFactor":0.7883002758026123,
				"roughnessFactor":0
			}
		},
		{
			"doubleSided":true,
			"name":"Mat_A38_Window_Rubber_001.001",
			"pbrMetallicRoughness":{
				"baseColorFactor":[
					0.08627449721097946,
					0.08627449721097946,
					0.08627449721097946,
					1
				],
				"metallicFactor":0,
				"roughnessFactor":0.8812443017959595
			}
		},
		{
			"doubleSided":true,
			"name":"Mat_A38_Window_Plastic_001.001",
			"pbrMetallicRoughness":{
				"baseColorFactor":[
					0.7450979948043823,
					0.7450979948043823,
					0.7450979948043823,
					1
				],
				"metallicFactor":0,
				"roughnessFactor":0.8727207779884338
			}
		},
		{
			"doubleSided":true,
			"name":"Mat_A38_Window_Handbar_001.001",
			"pbrMetallicRoughness":{
				"baseColorFactor":[
					0.5450980067253113,
					0.5450980067253113,
					0.5450980067253113,
					1
				],
				"metallicFactor":0,
				"roughnessFactor":0.8791684508323669
			}
		}
	],
	"meshes":[
		{
			"name":"A38_Window_WC_007_Mat_A38_Window_Wall_001_0.002",
			"primitives":[
				{
					"attributes":{
						"POSITION":0,
						"NORMAL":1,
						"TEXCOORD_0":2
					},
					"indices":3,
					"material":0
				},
				{
					"attributes":{
						"POSITION":4,
						"NORMAL":5,
						"TEXCOORD_0":6
					},
					"indices":7,
					"material":1
				},
				{
					"attributes":{
						"POSITION":8,
						"NORMAL":9,
						"TEXCOORD_0":10
					},
					"indices":11,
					"material":2
				},
				{
					"attributes":{
						"POSITION":12,
						"NORMAL":13,
						"TEXCOORD_0":14
					},
					"indices":15,
					"material":3
				},
				{
					"attributes":{
						"POSITION":16,
						"NORMAL":17,
						"TEXCOORD_0":18
					},
					"indices":15,
					"material":4
				},
				{
					"attributes":{
						"POSITION":19,
						"NORMAL":20,
						"TEXCOORD_0":21
					},
					"indices":22,
					"material":5
				},
				{
					"attributes":{
						"POSITION":23,
						"NORMAL":24,
						"TEXCOORD_0":25
					},
					"indices":26,
					"material":6
				},
				{
					"attributes":{
						"POSITION":27,
						"NORMAL":28,
						"TEXCOORD_0":29
					},
					"indices":30,
					"material":7
				}
			]
		}
	],
	"accessors":[
		{
			"bufferView":0,
			"componentType":5126,
			"count":52,
			"max":[
				625.0977783203125,
				1494.816650390625,
				28.630685806274414
			],
			"min":[
				-625.0977172851562,
				-2.4318962459801696e-05,
				-28.631057739257812
			],
			"type":"VEC3"
		},
		{
			"bufferView":1,
			"componentType":5126,
			"count":52,
			"type":"VEC3"
		},
		{
			"bufferView":2,
			"componentType":5126,
			"count":52,
			"type":"VEC2"
		},
		{
			"bufferView":3,
			"componentType":5123,
			"count":96,
			"type":"SCALAR"
		},
		{
			"bufferView":4,
			"componentType":5126,
			"count":92,
			"max":[
				609.0427856445312,
				1478.7615966796875,
				11.50674819946289
			],
			"min":[
				-609.042724609375,
				16.05493927001953,
				-12.576094627380371
			],
			"type":"VEC3"
		},
		{
			"bufferView":5,
			"componentType":5126,
			"count":92,
			"type":"VEC3"
		},
		{
			"bufferView":6,
			"componentType":5126,
			"count":92,
			"type":"VEC2"
		},
		{
			"bufferView":7,
			"componentType":5123,
			"count":204,
			"type":"SCALAR"
		},
		{
			"bufferView":8,
			"componentType":5126,
			"count":104,
			"max":[
				584.9603881835938,
				1454.67919921875,
				35.589176177978516
			],
			"min":[
				-584.9603271484375,
				40.13738250732422,
				11.506355285644531
			],
			"type":"VEC3"
		},
		{
			"bufferView":9,
			"componentType":5126,
			"count":104,
			"type":"VEC3"
		},
		{
			"bufferView":10,
			"componentType":5126,
			"count":104,
			"type":"VEC2"
		},
		{
			"bufferView":11,
			"componentType":5123,
			"count":192,
			"type":"SCALAR"
		},
		{
			"bufferView":12,
			"componentType":5126,
			"count":24,
			"max":[
				576.9329223632812,
				1430.5968017578125,
				27.561447143554688
			],
			"min":[
				-576.932861328125,
				1157.6624755859375,
				19.533842086791992
			],
			"type":"VEC3"
		},
		{
			"bufferView":13,
			"componentType":5126,
			"count":24,
			"type":"VEC3"
		},
		{
			"bufferView":14,
			"componentType":5126,
			"count":24,
			"type":"VEC2"
		},
		{
			"bufferView":15,
			"componentType":5123,
			"count":36,
			"type":"SCALAR"
		},
		{
			"bufferView":16,
			"componentType":5126,
			"count":24,
			"max":[
				576.9329223632812,
				1109.49755859375,
				27.561689376831055
			],
			"min":[
				-576.932861328125,
				64.2198257446289,
				19.533939361572266
			],
			"type":"VEC3"
		},
		{
			"bufferView":17,
			"componentType":5126,
			"count":24,
			"type":"VEC3"
		},
		{
			"bufferView":18,
			"componentType":5126,
			"count":24,
			"type":"VEC2"
		},
		{
			"bufferView":19,
			"componentType":5126,
			"count":96,
			"max":[
				560.8779296875,
				1430.5968017578125,
				31.07370948791504
			],
			"min":[
				-560.8778686523438,
				64.2198257446289,
				16.02182388305664
			],
			"type":"VEC3"
		},
		{
			"bufferView":20,
			"componentType":5126,
			"count":96,
			"type":"VEC3"
		},
		{
			"bufferView":21,
			"componentType":5126,
			"count":96,
			"type":"VEC2"
		},
		{
			"bufferView":22,
			"componentType":5123,
			"count":144,
			"type":"SCALAR"
		},
		{
			"bufferView":23,
			"componentType":5126,
			"count":182,
			"max":[
				596.1989135742188,
				1089.4288330078125,
				47.63022232055664
			],
			"min":[
				-584.292724609375,
				84.28852081298828,
				24.35052490234375
			],
			"type":"VEC3"
		},
		{
			"bufferView":24,
			"componentType":5126,
			"count":182,
			"type":"VEC3"
		},
		{
			"bufferView":25,
			"componentType":5126,
			"count":182,
			"type":"VEC2"
		},
		{
			"bufferView":26,
			"componentType":5123,
			"count":432,
			"type":"SCALAR"
		},
		{
			"bufferView":27,
			"componentType":5126,
			"count":593,
			"max":[
				-565.1329956054688,
				491.462158203125,
				79.0165023803711
			],
			"min":[
				-581.18798828125,
				371.77362060546875,
				47.630218505859375
			],
			"type":"VEC3"
		},
		{
			"bufferView":28,
			"componentType":5126,
			"count":593,
			"type":"VEC3"
		},
		{
			"bufferView":29,
			"componentType":5126,
			"count":593,
			"type":"VEC2"
		},
		{
			"bufferView":30,
			"componentType":5123,
			"count":3156,
			"type":"SCALAR"
		}
	],
	"bufferViews":[
		{
			"buffer":0,
			"byteLength":624,
			"byteOffset":0,
			"target":34962
		},
		{
			"buffer":0,
			"byteLength":624,
			"byteOffset":624,
			"target":34962
		},
		{
			"buffer":0,
			"byteLength":416,
			"byteOffset":1248,
			"target":34962
		},
		{
			"buffer":0,
			"byteLength":192,
			"byteOffset":1664,
			"target":34963
		},
		{
			"buffer":0,
			"byteLength":1104,
			"byteOffset":1856,
			"target":34962
		},
		{
			"buffer":0,
			"byteLength":1104,
			"byteOffset":2960,
			"target":34962
		},
		{
			"buffer":0,
			"byteLength":736,
			"byteOffset":4064,
			"target":34962
		},
		{
			"buffer":0,
			"byteLength":408,
			"byteOffset":4800,
			"target":34963
		},
		{
			"buffer":0,
			"byteLength":1248,
			"byteOffset":5208,
			"target":34962
		},
		{
			"buffer":0,
			"byteLength":1248,
			"byteOffset":6456,
			"target":34962
		},
		{
			"buffer":0,
			"byteLength":832,
			"byteOffset":7704,
			"target":34962
		},
		{
			"buffer":0,
			"byteLength":384,
			"byteOffset":8536,
			"target":34963
		},
		{
			"buffer":0,
			"byteLength":288,
			"byteOffset":8920,
			"target":34962
		},
		{
			"buffer":0,
			"byteLength":288,
			"byteOffset":9208,
			"target":34962
		},
		{
			"buffer":0,
			"byteLength":192,
			"byteOffset":9496,
			"target":34962
		},
		{
			"buffer":0,
			"byteLength":72,
			"byteOffset":9688,
			"target":34963
		},
		{
			"buffer":0,
			"byteLength":288,
			"byteOffset":9760,
			"target":34962
		},
		{
			"buffer":0,
			"byteLength":288,
			"byteOffset":10048,
			"target":34962
		},
		{
			"buffer":0,
			"byteLength":192,
			"byteOffset":10336,
			"target":34962
		},
		{
			"buffer":0,
			"byteLength":1152,
			"byteOffset":10528,
			"target":34962
		},
		{
			"buffer":0,
			"byteLength":1152,
			"byteOffset":11680,
			"target":34962
		},
		{
			"buffer":0,
			"byteLength":768,
			"byteOffset":12832,
			"target":34962
		},
		{
			"buffer":0,
			"byteLength":288,
			"byteOffset":13600,
			"target":34963
		},
		{
			"buffer":0,
			"byteLength":2184,
			"byteOffset":13888,
			"target":34962
		},
		{
			"buffer":0,
			"byteLength":2184,
			"byteOffset":16072,
			"target":34962
		},
		{
			"buffer":0,
			"byteLength":1456,
			"byteOffset":18256,
			"target":34962
		},
		{
			"buffer":0,
			"byteLength":864,
			"byteOffset":19712,
			"target":34963
		},
		{
			"buffer":0,
			"byteLength":7116,
			"byteOffset":20576,
			"target":34962
		},
		{
			"buffer":0,
			"byteLength":7116,
			"byteOffset":27692,
			"target":34962
		},
		{
			"buffer":0,
			"byteLength":4744,
			"byteOffset":34808,
			"target":34962
		},
		{
			"buffer":0,
			"byteLength":6312,
			"byteOffset":39552,
			"target":34963
		}
	],
	"buffers":[
		{
			"byteLength":45864,
			"uri":"scene.bin"
		}
	]
}
