{
	"asset":{
		"generator":"Khronos glTF Blender I/O v5.0.21",
		"version":"2.0"
	},
	"scene":0,
	"scenes":[
		{
			"name":"Scene",
			"nodes":[
				0
			]
		}
	],
	"nodes":[
		{
			"mesh":0,
			"name":"defaultMaterial.001",
			"scale":[
				0.0013483314542099833,
				0.0013483314542099833,
				0.0013483314542099833
			]
		}
	],
	"materials":[
		{
			"doubleSided":true,
			"emissiveFactor":[
				1,
				1,
				1
			],
			"emissiveTexture":{
				"index":0
			},
			"name":"1001.001",
			"normalTexture":{
				"index":1
			},
			"pbrMetallicRoughness":{
				"baseColorTexture":{
					"index":2
				},
				"metallicFactor":0,
				"roughnessFactor":0.5
			}
		},
		{
			"doubleSided":true,
			"emissiveFactor":[
				1,
				1,
				1
			],
			"emissiveTexture":{
				"index":3
			},
			"name":"1004.001",
			"normalTexture":{
				"index":4
			},
			"pbrMetallicRoughness":{
				"baseColorTexture":{
					"index":5
				},
				"metallicFactor":0,
				"roughnessFactor":0.5
			}
		},
		{
			"doubleSided":true,
			"emissiveFactor":[
				1,
				1,
				1
			],
			"emissiveTexture":{
				"index":6
			},
			"name":"1005.001",
			"normalTexture":{
				"index":7
			},
			"pbrMetallicRoughness":{
				"baseColorTexture":{
					"index":8
				},
				"metallicFactor":0,
				"roughnessFactor":0.5
			}
		},
		{
			"doubleSided":true,
			"emissiveFactor":[
				1,
				1,
				1
			],
			"emissiveTexture":{
				"index":9
			},
			"name":"1003.001",
			"normalTexture":{
				"index":10
			},
			"pbrMetallicRoughness":{
				"baseColorTexture":{
					"index":11
				},
				"metallicFactor":0,
				"roughnessFactor":0.5
			}
		},
		{
			"doubleSided":true,
			"emissiveFactor":[
				1,
				1,
				1
			],
			"emissiveTexture":{
				"index":12
			},
			"name":"1006.001",
			"normalTexture":{
				"index":13
			},
			"pbrMetallicRoughness":{
				"baseColorTexture":{
					"index":14
				},
				"metallicFactor":0,
				"roughnessFactor":0.5
			}
		},
		{
			"doubleSided":true,
			"emissiveFactor":[
				1,
				1,
				1
			],
			"emissiveTexture":{
				"index":15
			},
			"name":"1002.001",
			"normalTexture":{
				"index":16
			},
			"pbrMetallicRoughness":{
				"baseColorTexture":{
					"index":17
				},
				"metallicFactor":0,
				"roughnessFactor":0.5
			}
		}
	],
	"meshes":[
		{
			"name":"defaultMaterial.006",
			"primitives":[
				{
					"attributes":{
						"POSITION":0,
						"NORMAL":1,
						"TEXCOORD_0":2
					},
					"indices":3,
					"material":0
				},
				{
					"attributes":{
						"POSITION":4,
						"NORMAL":5,
						"TEXCOORD_0":6
					},
					"indices":7,
					"material":1
				},
				{
					"attributes":{
						"POSITION":8,
						"NORMAL":9,
						"TEXCOORD_0":10
					},
					"indices":11,
					"material":2
				},
				{
					"attributes":{
						"POSITION":12,
						"NORMAL":13,
						"TEXCOORD_0":14
					},
					"indices":15,
					"material":3
				},
				{
					"attributes":{
						"POSITION":16,
						"NORMAL":17,
						"TEXCOORD_0":18
					},
					"indices":19,
					"material":4
				},
				{
					"attributes":{
						"POSITION":20,
						"NORMAL":21,
						"TEXCOORD_0":22
					},
					"indices":23,
					"material":5
				}
			]
		}
	],
	"textures":[
		{
			"sampler":0,
			"source":0
		},
		{
			"sampler":0,
			"source":1
		},
		{
			"sampler":0,
			"source":2
		},
		{
			"sampler":0,
			"source":3
		},
		{
			"sampler":0,
			"source":4
		},
		{
			"sampler":0,
			"source":5
		},
		{
			"sampler":0,
			"source":6
		},
		{
			"sampler":0,
			"source":7
		},
		{
			"sampler":0,
			"source":8
		},
		{
			"sampler":0,
			"source":9
		},
		{
			"sampler":0,
			"source":10
		},
		{
			"sampler":0,
			"source":11
		},
		{
			"sampler":0,
			"source":12
		},
		{
			"sampler":0,
			"source":13
		},
		{
			"sampler":0,
			"source":14
		},
		{
			"sampler":0,
			"source":15
		},
		{
			"sampler":0,
			"source":16
		},
		{
			"sampler":0,
			"source":17
		}
	],
	"images":[
		{
			"mimeType":"image/jpeg",
			"name":"1001_emissive",
			"uri":"1001_emissive.jpg"
		},
		{
			"mimeType":"image/png",
			"name":"1001_normal",
			"uri":"1001_normal.png"
		},
		{
			"mimeType":"image/jpeg",
			"name":"1001_baseColor",
			"uri":"1001_baseColor.jpg"
		},
		{
			"mimeType":"image/jpeg",
			"name":"1004_emissive",
			"uri":"1004_emissive.jpg"
		},
		{
			"mimeType":"image/png",
			"name":"1004_normal",
			"uri":"1004_normal.png"
		},
		{
			"mimeType":"image/jpeg",
			"name":"1004_baseColor",
			"uri":"1004_baseColor.jpg"
		},
		{
			"mimeType":"image/jpeg",
			"name":"1005_emissive",
			"uri":"1005_emissive.jpg"
		},
		{
			"mimeType":"image/png",
			"name":"1005_normal",
			"uri":"1005_normal.png"
		},
		{
			"mimeType":"image/jpeg",
			"name":"1005_baseColor",
			"uri":"1005_baseColor.jpg"
		},
		{
			"mimeType":"image/jpeg",
			"name":"1003_emissive",
			"uri":"1003_emissive.jpg"
		},
		{
			"mimeType":"image/png",
			"name":"1003_normal",
			"uri":"1003_normal.png"
		},
		{
			"mimeType":"image/jpeg",
			"name":"1003_baseColor",
			"uri":"1003_baseColor.jpg"
		},
		{
			"mimeType":"image/jpeg",
			"name":"1006_emissive",
			"uri":"1006_emissive.jpg"
		},
		{
			"mimeType":"image/png",
			"name":"1006_normal",
			"uri":"1006_normal.png"
		},
		{
			"mimeType":"image/jpeg",
			"name":"1006_baseColor",
			"uri":"1006_baseColor.jpg"
		},
		{
			"mimeType":"image/jpeg",
			"name":"1002_emissive",
			"uri":"1002_emissive.jpg"
		},
		{
			"mimeType":"image/png",
			"name":"1002_normal",
			"uri":"1002_normal.png"
		},
		{
			"mimeType":"image/jpeg",
			"name":"1002_baseColor",
			"uri":"1002_baseColor.jpg"
		}
	],
	"accessors":[
		{
			"bufferView":0,
			"componentType":5126,
			"count":656,
			"max":[
				991.8148193359375,
				46.1175537109375,
				372.72796630859375
			],
			"min":[
				-983.001953125,
				0.2635498046875,
				-379.1099853515625
			],
			"type":"VEC3"
		},
		{
			"bufferView":1,
			"componentType":5126,
			"count":656,
			"type":"VEC3"
		},
		{
			"bufferView":2,
			"componentType":5126,
			"count":656,
			"type":"VEC2"
		},
		{
			"bufferView":3,
			"componentType":5123,
			"count":1824,
			"type":"SCALAR"
		},
		{
			"bufferView":4,
			"componentType":5126,
			"count":7699,
			"max":[
				739.6690673828125,
				601.9635009765625,
				323.93499755859375
			],
			"min":[
				-720.5909423828125,
				303.1889953613281,
				-167.1079864501953
			],
			"type":"VEC3"
		},
		{
			"bufferView":5,
			"componentType":5126,
			"count":7699,
			"type":"VEC3"
		},
		{
			"bufferView":6,
			"componentType":5126,
			"count":7699,
			"type":"VEC2"
		},
		{
			"bufferView":7,
			"componentType":5123,
			"count":42738,
			"type":"SCALAR"
		},
		{
			"bufferView":8,
			"componentType":5126,
			"count":3276,
			"max":[
				948.1920166015625,
				473.6825256347656,
				380.8270263671875
			],
			"min":[
				-945.23193359375,
				178.45350646972656,
				-336.3719482421875
			],
			"type":"VEC3"
		},
		{
			"bufferView":9,
			"componentType":5126,
			"count":3276,
			"type":"VEC3"
		},
		{
			"bufferView":10,
			"componentType":5126,
			"count":3276,
			"type":"VEC2"
		},
		{
			"bufferView":11,
			"componentType":5123,
			"count":17856,
			"type":"SCALAR"
		},
		{
			"bufferView":12,
			"componentType":5126,
			"count":3120,
			"max":[
				999.9998779296875,
				463.4525146484375,
				378.11700439453125
			],
			"min":[
				-999.9999389648438,
				46.55451965332031,
				-391.83099365234375
			],
			"type":"VEC3"
		},
		{
			"bufferView":13,
			"componentType":5126,
			"count":3120,
			"type":"VEC3"
		},
		{
			"bufferView":14,
			"componentType":5126,
			"count":3120,
			"type":"VEC2"
		},
		{
			"bufferView":15,
			"componentType":5123,
			"count":15636,
			"type":"SCALAR"
		},
		{
			"bufferView":16,
			"componentType":5126,
			"count":1456,
			"max":[
				942.5928955078125,
				183.54153442382812,
				380.23297119140625
			],
			"min":[
				-940.06494140625,
				45.46754455566406,
				-334.2509765625
			],
			"type":"VEC3"
		},
		{
			"bufferView":17,
			"componentType":5126,
			"count":1456,
			"type":"VEC3"
		},
		{
			"bufferView":18,
			"componentType":5126,
			"count":1456,
			"type":"VEC2"
		},
		{
			"bufferView":19,
			"componentType":5123,
			"count":7800,
			"type":"SCALAR"
		},
		{
			"bufferView":20,
			"componentType":5126,
			"count":2876,
			"max":[
				728.5731201171875,
				325.22552490234375,
				391.83099365234375
			],
			"min":[
				-714.3069458007812,
				176.39654541015625,
				-116.24398803710938
			],
			"type":"VEC3"
		},
		{
			"bufferView":21,
			"componentType":5126,
			"count":2876,
			"type":"VEC3"
		},
		{
			"bufferView":22,
			"componentType":5126,
			"count":2876,
			"type":"VEC2"
		},
		{
			"bufferView":23,
			"componentType":5123,
			"count":15456,
			"type":"SCALAR"
		}
	],
	"bufferViews":[
		{
			"buffer":0,
			"byteLength":7872,
			"byteOffset":0,
			"target":34962
		},
		{
			"buffer":0,
			"byteLength":7872,
			"byteOffset":7872,
			"target":34962
		},
		{
			"buffer":0,
			"byteLength":5248,
			"byteOffset":15744,
			"target":34962
		},
		{
			"buffer":0,
			"byteLength":3648,
			"byteOffset":20992,
			"target":34963
		},
		{
			"buffer":0,
			"byteLength":92388,
			"byteOffset":24640,
			"target":34962
		},
		{
			"buffer":0,
			"byteLength":92388,
			"byteOffset":117028,
			"target":34962
		},
		{
			"buffer":0,
			"byteLength":61592,
			"byteOffset":209416,
			"target":34962
		},
		{
			"buffer":0,
			"byteLength":85476,
			"byteOffset":271008,
			"target":34963
		},
		{
			"buffer":0,
			"byteLength":39312,
			"byteOffset":356484,
			"target":34962
		},
		{
			"buffer":0,
			"byteLength":39312,
			"byteOffset":395796,
			"target":34962
		},
		{
			"buffer":0,
			"byteLength":26208,
			"byteOffset":435108,
			"target":34962
		},
		{
			"buffer":0,
			"byteLength":35712,
			"byteOffset":461316,
			"target":34963
		},
		{
			"buffer":0,
			"byteLength":37440,
			"byteOffset":497028,
			"target":34962
		},
		{
			"buffer":0,
			"byteLength":37440,
			"byteOffset":534468,
			"target":34962
		},
		{
			"buffer":0,
			"byteLength":24960,
			"byteOffset":571908,
			"target":34962
		},
		{
			"buffer":0,
			"byteLength":31272,
			"byteOffset":596868,
			"target":34963
		},
		{
			"buffer":0,
			"byteLength":17472,
			"byteOffset":628140,
			"target":34962
		},
		{
			"buffer":0,
			"byteLength":17472,
			"byteOffset":645612,
			"target":34962
		},
		{
			"buffer":0,
			"byteLength":11648,
			"byteOffset":663084,
			"target":34962
		},
		{
			"buffer":0,
			"byteLength":15600,
			"byteOffset":674732,
			"target":34963
		},
		{
			"buffer":0,
			"byteLength":34512,
			"byteOffset":690332,
			"target":34962
		},
		{
			"buffer":0,
			"byteLength":34512,
			"byteOffset":724844,
			"target":34962
		},
		{
			"buffer":0,
			"byteLength":23008,
			"byteOffset":759356,
			"target":34962
		},
		{
			"buffer":0,
			"byteLength":30912,
			"byteOffset":782364,
			"target":34963
		}
	],
	"samplers":[
		{
			"magFilter":9729,
			"minFilter":9987
		}
	],
	"buffers":[
		{
			"byteLength":813276,
			"uri":"scene.bin"
		}
	]
}
