{
	"asset":{
		"generator":"Khronos glTF Blender I/O v5.0.21",
		"version":"2.0"
	},
	"scene":0,
	"scenes":[
		{
			"name":"Scene",
			"nodes":[
				0
			]
		}
	],
	"nodes":[
		{
			"mesh":0,
			"name":"Paloma_Large_Wool_Rug_Paloma_Large_Wool_Rug_0",
			"rotation":[
				-0.70710688829422,
				0,
				0,
				0.7071066498756409
			],
			"scale":[
				1.4744940017408226e-05,
				1.4744945474376436e-05,
				8.624094334663823e-06
			],
			"translation":[
				0,
				0.0009643398807384074,
				0
			]
		}
	],
	"materials":[
		{
			"doubleSided":true,
			"name":"Paloma_Large_Wool_Rug",
			"pbrMetallicRoughness":{
				"baseColorTexture":{
					"index":0
				},
				"metallicFactor":0,
				"roughnessFactor":0.8929713368415833
			}
		}
	],
	"meshes":[
		{
			"name":"Paloma_Large_Wool_Rug_Paloma_Large_Wool_Rug_0",
			"primitives":[
				{
					"attributes":{
						"POSITION":0,
						"NORMAL":1,
						"TEXCOORD_0":2
					},
					"indices":3,
					"material":0
				}
			]
		}
	],
	"textures":[
		{
			"sampler":0,
			"source":0
		}
	],
	"images":[
		{
			"mimeType":"image/jpeg",
			"name":"Paloma_Large_Wool_Rug_baseColor",
			"uri":"Paloma_Large_Wool_Rug_baseColor.jpg"
		}
	],
	"accessors":[
		{
			"bufferView":0,
			"componentType":5126,
			"count":2498,
			"max":[
				115867.59375,
				79704.796875,
				3537.099853515625
			],
			"min":[
				-115929.6953125,
				-79684.9921875,
				3.2681586742401123
			],
			"type":"VEC3"
		},
		{
			"bufferView":1,
			"componentType":5126,
			"count":2498,
			"type":"VEC3"
		},
		{
			"bufferView":2,
			"componentType":5126,
			"count":2498,
			"type":"VEC2"
		},
		{
			"bufferView":3,
			"componentType":5123,
			"count":13536,
			"type":"SCALAR"
		}
	],
	"bufferViews":[
		{
			"buffer":0,
			"byteLength":29976,
			"byteOffset":0,
			"target":34962
		},
		{
			"buffer":0,
			"byteLength":29976,
			"byteOffset":29976,
			"target":34962
		},
		{
			"buffer":0,
			"byteLength":19984,
			"byteOffset":59952,
			"target":34962
		},
		{
			"buffer":0,
			"byteLength":27072,
			"byteOffset":79936,
			"target":34963
		}
	],
	"samplers":[
		{
			"magFilter":9729,
			"minFilter":9987
		}
	],
	"buffers":[
		{
			"byteLength":107008,
			"uri":"scene.bin"
		}
	]
}
