{
  "accessors": [
    {
      "bufferView": 2,
      "componentType": 5126,
      "count": 2178,
      "max": [
        149.1328887939453,
        2.906101942062378,
        91.8877182006836
      ],
      "min": [
        -149.105224609375,
        -0.4192180037498474,
        -91.91355895996094
      ],
      "type": "VEC3"
    },
    {
      "bufferView": 2,
      "byteOffset": 26136,
      "componentType": 5126,
      "count": 2178,
      "max": [
        0.9999948740005493,
        1.0,
        0.9996995329856873
      ],
      "min": [
        -0.9998825192451477,
        -0.9999815821647644,
        -0.9999863505363464
      ],
      "type": "VEC3"
    },
    {
      "bufferView": 3,
      "componentType": 5126,
      "count": 2178,
      "max": [
        0.9999998211860657,
        0.5885404348373413,
        1.0,
        1.0
      ],
      "min": [
        -1.0,
        -0.6647863984107971,
        -0.9999896883964539,
        -1.0
      ],
      "type": "VEC4"
    },
    {
      "bufferView": 1,
      "componentType": 5126,
      "count": 2178,
      "max": [
        0.9129690527915955,
        0.9994999766349792
      ],
      "min": [
        0.0005000000237487257,
        0.0004999637603759766
      ],
      "type": "VEC2"
    },
    {
      "bufferView": 1,
      "byteOffset": 17424,
      "componentType": 5126,
      "count": 2178,
      "max": [
        0.9129690527915955,
        0.9994999766349792
      ],
      "min": [
        0.0005000000237487257,
        0.0004999637603759766
      ],
      "type": "VEC2"
    },
    {
      "bufferView": 1,
      "byteOffset": 34848,
      "componentType": 5126,
      "count": 2178,
      "max": [
        0.9129690527915955,
        0.9994999766349792
      ],
      "min": [
        0.0005000000237487257,
        0.0004999637603759766
      ],
      "type": "VEC2"
    },
    {
      "bufferView": 1,
      "byteOffset": 52272,
      "componentType": 5126,
      "count": 2178,
      "max": [
        0.9129690527915955,
        0.9994999766349792
      ],
      "min": [
        0.0005000000237487257,
        0.0004999637603759766
      ],
      "type": "VEC2"
    },
    {
      "bufferView": 0,
      "componentType": 5125,
      "count": 11424,
      "type": "SCALAR"
    }
  ],
  "asset": {
    "extras": {
      "author": "Seismic_Creations (https://sketchfab.com/Seismic_Creations)",
      "license": "CC-BY-4.0 (http://creativecommons.org/licenses/by/4.0/)",
      "source": "https://sketchfab.com/3d-models/carpet-434fcc9211e1434dbee7c5024c191c4c",
      "title": "Carpet"
    },
    "generator": "Sketchfab-12.74.0",
    "version": "2.0"
  },
  "bufferViews": [
    {
      "buffer": 0,
      "byteLength": 45696,
      "name": "floatBufferViews",
      "target": 34963
    },
    {
      "buffer": 0,
      "byteLength": 69696,
      "byteOffset": 45696,
      "byteStride": 8,
      "name": "floatBufferViews",
      "target": 34962
    },
    {
      "buffer": 0,
      "byteLength": 52272,
      "byteOffset": 115392,
      "byteStride": 12,
      "name": "floatBufferViews",
      "target": 34962
    },
    {
      "buffer": 0,
      "byteLength": 34848,
      "byteOffset": 167664,
      "byteStride": 16,
      "name": "floatBufferViews",
      "target": 34962
    }
  ],
  "buffers": [
    {
      "byteLength": 202512,
      "uri": "scene.bin"
    }
  ],
  "images": [
    {
      "uri": "textures/carpet_mtl_baseColor.jpeg"
    },
    {
      "uri": "textures/carpet_mtl_metallicRoughness.png"
    },
    {
      "uri": "textures/carpet_mtl_normal.jpeg"
    }
  ],
  "materials": [
    {
      "doubleSided": true,
      "name": "carpet_mtl",
      "normalTexture": {
        "index": 2
      },
      "pbrMetallicRoughness": {
        "baseColorTexture": {
          "index": 0
        },
        "metallicRoughnessTexture": {
          "index": 1
        }
      }
    }
  ],
  "meshes": [
    {
      "name": "Object_0",
      "primitives": [
        {
          "attributes": {
            "NORMAL": 1,
            "POSITION": 0,
            "TANGENT": 2,
            "TEXCOORD_0": 3,
            "TEXCOORD_1": 4,
            "TEXCOORD_2": 5,
            "TEXCOORD_3": 6
          },
          "indices": 7,
          "material": 0,
          "mode": 4
        }
      ]
    }
  ],
  "nodes": [
    {
      "children": [
        1
      ],
      "matrix": [
        1.0,
        0.0,
        0.0,
        0.0,
        0.0,
        2.220446049250313e-16,
        -1.0,
        0.0,
        0.0,
        1.0,
        2.220446049250313e-16,
        0.0,
        0.0,
        0.0,
        0.0,
        1.0
      ],
      "name": "Sketchfab_model"
    },
    {
      "children": [
        2
      ],
      "name": "root"
    },
    {
      "children": [
        3
      ],
      "matrix": [
        1.0,
        0.0,
        0.0,
        0.0,
        0.0,
        2.220446049250313e-16,
        1.0,
        0.0,
        0.0,
        -1.0,
        2.220446049250313e-16,
        0.0,
        0.0,
        0.0,
        0.0,
        1.0
      ],
      "name": "GLTF_SceneRootNode"
    },
    {
      "children": [
        4
      ],
      "matrix": [
        0.006887999828904867,
        0.0,
        0.0,
        0.0,
        0.0,
        0.006887999828904867,
        0.0,
        0.0,
        0.0,
        0.0,
        0.006887999828904867,
        0.0,
        0.0,
        0.0,
        0.0,
        1.0
      ],
      "name": "Carpet_LP_2"
    },
    {
      "mesh": 0,
      "name": "Object_4"
    }
  ],
  "samplers": [
    {
      "magFilter": 9729,
      "minFilter": 9987,
      "wrapS": 10497,
      "wrapT": 10497
    }
  ],
  "scene": 0,
  "scenes": [
    {
      "name": "Sketchfab_Scene",
      "nodes": [
        0
      ]
    }
  ],
  "textures": [
    {
      "sampler": 0,
      "source": 0
    },
    {
      "sampler": 0,
      "source": 1
    },
    {
      "sampler": 0,
      "source": 2
    }
  ]
}
