{
	"asset":{
		"generator":"Khronos glTF Blender I/O v5.0.21",
		"version":"2.0"
	},
	"extensionsUsed":[
		"KHR_materials_specular"
	],
	"scene":0,
	"scenes":[
		{
			"name":"Scene",
			"nodes":[
				8
			]
		}
	],
	"nodes":[
		{
			"mesh":0,
			"name":"D1-Door_D1_0",
			"scale":[
				39.491798400878906,
				39.491783142089844,
				39.491783142089844
			],
			"translation":[
				0,
				0.8611566424369812,
				0
			]
		},
		{
			"children":[
				0
			],
			"name":"D1-Door"
		},
		{
			"mesh":1,
			"name":"D1-Frame_D1_0",
			"scale":[
				39.491798400878906,
				39.491783142089844,
				39.491783142089844
			],
			"translation":[
				0,
				0.8611661195755005,
				0
			]
		},
		{
			"children":[
				2
			],
			"name":"D1-Frame"
		},
		{
			"name":"D2-Door",
			"rotation":[
				0,
				-0.7071068286895752,
				-0.7071068286895752,
				5.3385093679025886e-08
			],
			"scale":[
				100.0000228881836,
				100.00001525878906,
				100.00001525878906
			],
			"translation":[
				20.000019073486328,
				529.9989624023438,
				-284.9999694824219
			]
		},
		{
			"name":"D2-Preview"
		},
		{
			"children":[
				1,
				3,
				4,
				5
			],
			"name":"RootNode"
		},
		{
			"children":[
				6
			],
			"name":"InteriorWoodDoors.fbx",
			"rotation":[
				0.70710688829422,
				0,
				0,
				0.7071066498756409
			],
			"scale":[
				0.009999999776482582,
				0.010000000707805157,
				0.010000000707805157
			]
		},
		{
			"children":[
				7
			],
			"name":"Sketchfab_model",
			"rotation":[
				-0.70710688829422,
				0,
				0,
				0.7071066498756409
			]
		}
	],
	"materials":[
		{
			"doubleSided":true,
			"extensions":{
				"KHR_materials_specular":{
					"specularFactor":0.30000001192092896
				}
			},
			"name":"material",
			"normalTexture":{
				"index":0
			},
			"pbrMetallicRoughness":{
				"baseColorTexture":{
					"index":1
				},
				"metallicRoughnessTexture":{
					"index":2
				},
				"roughnessFactor":0.6000000238418579
			}
		}
	],
	"meshes":[
		{
			"name":"D1-Door_D1_0",
			"primitives":[
				{
					"attributes":{
						"POSITION":0,
						"NORMAL":1,
						"TEXCOORD_0":2,
						"TEXCOORD_1":3,
						"TEXCOORD_2":4
					},
					"indices":5,
					"material":0
				}
			]
		},
		{
			"name":"D1-Frame_D1_0",
			"primitives":[
				{
					"attributes":{
						"POSITION":6,
						"NORMAL":7,
						"TEXCOORD_0":8,
						"TEXCOORD_1":9,
						"TEXCOORD_2":10
					},
					"indices":11,
					"material":0
				}
			]
		}
	],
	"textures":[
		{
			"sampler":0,
			"source":0
		},
		{
			"sampler":0,
			"source":1
		},
		{
			"sampler":0,
			"source":2
		}
	],
	"images":[
		{
			"mimeType":"image/png",
			"name":"material_normal",
			"uri":"textures/material_normal.png"
		},
		{
			"mimeType":"image/png",
			"name":"material_baseColor",
			"uri":"textures/material_baseColor.png"
		},
		{
			"mimeType":"image/png",
			"name":"material_metallicRoughness",
			"uri":"textures/material_metallicRoughness.png"
		}
	],
	"accessors":[
		{
			"bufferView":0,
			"componentType":5126,
			"count":1793,
			"max":[
				0.20909075438976288,
				4.979095458984375,
				1.0564123392105103
			],
			"min":[
				-0.3320292532444,
				-0.014893153682351112,
				-1.0180171728134155
			],
			"type":"VEC3"
		},
		{
			"bufferView":1,
			"componentType":5126,
			"count":1793,
			"type":"VEC3"
		},
		{
			"bufferView":2,
			"componentType":5126,
			"count":1793,
			"type":"VEC2"
		},
		{
			"bufferView":3,
			"componentType":5126,
			"count":1793,
			"type":"VEC2"
		},
		{
			"bufferView":4,
			"componentType":5126,
			"count":1793,
			"type":"VEC2"
		},
		{
			"bufferView":5,
			"componentType":5123,
			"count":6150,
			"type":"SCALAR"
		},
		{
			"bufferView":6,
			"componentType":5126,
			"count":643,
			"max":[
				0.14074179530143738,
				5.284564018249512,
				1.3071256875991821
			],
			"min":[
				-0.29464614391326904,
				-0.015438556671142578,
				-1.2928766012191772
			],
			"type":"VEC3"
		},
		{
			"bufferView":7,
			"componentType":5126,
			"count":643,
			"type":"VEC3"
		},
		{
			"bufferView":8,
			"componentType":5126,
			"count":643,
			"type":"VEC2"
		},
		{
			"bufferView":9,
			"componentType":5126,
			"count":643,
			"type":"VEC2"
		},
		{
			"bufferView":10,
			"componentType":5126,
			"count":643,
			"type":"VEC2"
		},
		{
			"bufferView":11,
			"componentType":5123,
			"count":1476,
			"type":"SCALAR"
		}
	],
	"bufferViews":[
		{
			"buffer":0,
			"byteLength":21516,
			"byteOffset":0,
			"target":34962
		},
		{
			"buffer":0,
			"byteLength":21516,
			"byteOffset":21516,
			"target":34962
		},
		{
			"buffer":0,
			"byteLength":14344,
			"byteOffset":43032,
			"target":34962
		},
		{
			"buffer":0,
			"byteLength":14344,
			"byteOffset":57376,
			"target":34962
		},
		{
			"buffer":0,
			"byteLength":14344,
			"byteOffset":71720,
			"target":34962
		},
		{
			"buffer":0,
			"byteLength":12300,
			"byteOffset":86064,
			"target":34963
		},
		{
			"buffer":0,
			"byteLength":7716,
			"byteOffset":98364,
			"target":34962
		},
		{
			"buffer":0,
			"byteLength":7716,
			"byteOffset":106080,
			"target":34962
		},
		{
			"buffer":0,
			"byteLength":5144,
			"byteOffset":113796,
			"target":34962
		},
		{
			"buffer":0,
			"byteLength":5144,
			"byteOffset":118940,
			"target":34962
		},
		{
			"buffer":0,
			"byteLength":5144,
			"byteOffset":124084,
			"target":34962
		},
		{
			"buffer":0,
			"byteLength":2952,
			"byteOffset":129228,
			"target":34963
		}
	],
	"samplers":[
		{
			"magFilter":9728,
			"minFilter":9984
		}
	],
	"buffers":[
		{
			"byteLength":132180,
			"uri":"scene.bin"
		}
	]
}
