{
	"asset":{
		"generator":"Khronos glTF Blender I/O v5.0.21",
		"version":"2.0"
	},
	"extensionsUsed":[
		"KHR_materials_specular",
		"KHR_materials_ior"
	],
	"scene":0,
	"scenes":[
		{
			"name":"Scene",
			"nodes":[
				0
			]
		}
	],
	"nodes":[
		{
			"mesh":0,
			"name":"Cube.016_XXXX.002",
			"rotation":[
				0.7071069478988647,
				0,
				0,
				0.7071066498756409
			],
			"scale":[
				914.7221069335938,
				914.7246704101562,
				914.7246704101562
			]
		}
	],
	"materials":[
		{
			"doubleSided":true,
			"extensions":{
				"KHR_materials_specular":{
					"specularColorFactor":[
						1.600000023841858,
						1.600000023841858,
						1.600000023841858
					]
				},
				"KHR_materials_ior":{
					"ior":1
				}
			},
			"name":"None",
			"normalTexture":{
				"index":0
			},
			"pbrMetallicRoughness":{
				"baseColorTexture":{
					"index":1
				},
				"metallicRoughnessTexture":{
					"index":2
				}
			}
		}
	],
	"meshes":[
		{
			"name":"Cube.016_XXXX.001",
			"primitives":[
				{
					"attributes":{
						"POSITION":0,
						"NORMAL":1,
						"TEXCOORD_0":2,
						"COLOR_0":3,
						"COLOR_1":4
					},
					"indices":5,
					"material":0
				}
			]
		}
	],
	"textures":[
		{
			"sampler":0,
			"source":0
		},
		{
			"sampler":0,
			"source":1
		},
		{
			"sampler":0,
			"source":2
		}
	],
	"images":[
		{
			"mimeType":"image/png",
			"name":"InteriorDoor_001_Normal",
			"uri":"InteriorDoor_001_Normal.png"
		},
		{
			"mimeType":"image/png",
			"name":"InteriorDoor_001_Albedo",
			"uri":"InteriorDoor_001_Albedo.png"
		},
		{
			"mimeType":"image/png",
			"name":"InteriorDoor_001_Metallic-InteriorDoor_001_Roughness",
			"uri":"InteriorDoor_001_Metallic-InteriorDoor_001_Roughness.png"
		}
	],
	"accessors":[
		{
			"bufferView":0,
			"componentType":5126,
			"count":3719,
			"max":[
				0.5400000214576721,
				0.12786400318145752,
				0
			],
			"min":[
				-0.5557010173797607,
				-0.12786400318145752,
				-2.4000000953674316
			],
			"type":"VEC3"
		},
		{
			"bufferView":1,
			"componentType":5126,
			"count":3719,
			"type":"VEC3"
		},
		{
			"bufferView":2,
			"componentType":5126,
			"count":3719,
			"type":"VEC2"
		},
		{
			"bufferView":3,
			"componentType":5121,
			"count":3719,
			"normalized":true,
			"type":"VEC4"
		},
		{
			"bufferView":4,
			"componentType":5123,
			"count":3719,
			"normalized":true,
			"type":"VEC4"
		},
		{
			"bufferView":5,
			"componentType":5123,
			"count":5280,
			"type":"SCALAR"
		}
	],
	"bufferViews":[
		{
			"buffer":0,
			"byteLength":44628,
			"byteOffset":0,
			"target":34962
		},
		{
			"buffer":0,
			"byteLength":44628,
			"byteOffset":44628,
			"target":34962
		},
		{
			"buffer":0,
			"byteLength":29752,
			"byteOffset":89256,
			"target":34962
		},
		{
			"buffer":0,
			"byteLength":14876,
			"byteOffset":119008,
			"target":34962
		},
		{
			"buffer":0,
			"byteLength":29752,
			"byteOffset":133884,
			"target":34962
		},
		{
			"buffer":0,
			"byteLength":10560,
			"byteOffset":163636,
			"target":34963
		}
	],
	"samplers":[
		{
			"magFilter":9729,
			"minFilter":9987
		}
	],
	"buffers":[
		{
			"byteLength":174196,
			"uri":"door.bin"
		}
	]
}
