{
	"asset":{
		"generator":"Khronos glTF Blender I/O v5.0.21",
		"version":"2.0"
	},
	"scene":0,
	"scenes":[
		{
			"name":"Scene",
			"nodes":[
				0
			]
		}
	],
	"nodes":[
		{
			"mesh":0,
			"name":"Cube.016_XXXX.002"
		}
	],
	"materials":[
		{
			"doubleSided":true,
			"name":"None.003",
			"pbrMetallicRoughness":{
				"baseColorFactor":[
					0.800000011920929,
					0.800000011920929,
					0.800000011920929,
					1
				],
				"metallicFactor":0,
				"roughnessFactor":0.5
			}
		}
	],
	"meshes":[
		{
			"name":"Cube.016_XXXX.003",
			"primitives":[
				{
					"attributes":{
						"POSITION":0,
						"NORMAL":1,
						"TEXCOORD_0":2,
						"COLOR_0":3,
						"COLOR_1":4,
						"COLOR_2":5
					},
					"indices":6,
					"material":0
				}
			]
		}
	],
	"accessors":[
		{
			"bufferView":0,
			"componentType":5126,
			"count":3719,
			"max":[
				0.11736346036195755,
				2.202901601791382,
				0.5100629925727844
			],
			"min":[
				-0.11736305058002472,
				-8.49805736891085e-09,
				-0.4956514537334442
			],
			"type":"VEC3"
		},
		{
			"bufferView":1,
			"componentType":5126,
			"count":3719,
			"type":"VEC3"
		},
		{
			"bufferView":2,
			"componentType":5126,
			"count":3719,
			"type":"VEC2"
		},
		{
			"bufferView":3,
			"componentType":5121,
			"count":3719,
			"normalized":true,
			"type":"VEC4"
		},
		{
			"bufferView":4,
			"componentType":5123,
			"count":3719,
			"normalized":true,
			"type":"VEC4"
		},
		{
			"bufferView":5,
			"componentType":5123,
			"count":3719,
			"normalized":true,
			"type":"VEC4"
		},
		{
			"bufferView":6,
			"componentType":5123,
			"count":5280,
			"type":"SCALAR"
		}
	],
	"bufferViews":[
		{
			"buffer":0,
			"byteLength":44628,
			"byteOffset":0,
			"target":34962
		},
		{
			"buffer":0,
			"byteLength":44628,
			"byteOffset":44628,
			"target":34962
		},
		{
			"buffer":0,
			"byteLength":29752,
			"byteOffset":89256,
			"target":34962
		},
		{
			"buffer":0,
			"byteLength":14876,
			"byteOffset":119008,
			"target":34962
		},
		{
			"buffer":0,
			"byteLength":29752,
			"byteOffset":133884,
			"target":34962
		},
		{
			"buffer":0,
			"byteLength":29752,
			"byteOffset":163636,
			"target":34962
		},
		{
			"buffer":0,
			"byteLength":10560,
			"byteOffset":193388,
			"target":34963
		}
	],
	"buffers":[
		{
			"byteLength":203948,
			"uri":"scene.bin"
		}
	]
}
