{
	"asset":{
		"generator":"Khronos glTF Blender I/O v5.0.21",
		"version":"2.0"
	},
	"scene":0,
	"scenes":[
		{
			"name":"Scene",
			"nodes":[
				0
			]
		}
	],
	"nodes":[
		{
			"mesh":0,
			"name":"4 L_Material_0",
			"scale":[
				9.281960956286639e-06,
				9.281960956286639e-06,
				9.281960956286639e-06
			]
		}
	],
	"materials":[
		{
			"doubleSided":true,
			"name":"Material.002",
			"normalTexture":{
				"index":0
			},
			"pbrMetallicRoughness":{
				"baseColorTexture":{
					"index":1
				},
				"metallicFactor":0,
				"roughnessFactor":0.5
			}
		}
	],
	"meshes":[
		{
			"name":"4 L_Material_0.001",
			"primitives":[
				{
					"attributes":{
						"POSITION":0,
						"NORMAL":1,
						"TEXCOORD_0":2,
						"TEXCOORD_1":3,
						"TEXCOORD_2":4
					},
					"indices":5,
					"material":0
				}
			]
		}
	],
	"textures":[
		{
			"sampler":0,
			"source":0
		},
		{
			"sampler":0,
			"source":1
		}
	],
	"images":[
		{
			"mimeType":"image/png",
			"name":"Material_normal",
			"uri":"Material_normal.png"
		},
		{
			"mimeType":"image/jpeg",
			"name":"Material_baseColor",
			"uri":"Material_baseColor.jpg"
		}
	],
	"accessors":[
		{
			"bufferView":0,
			"componentType":5126,
			"count":21395,
			"max":[
				146521.421875,
				88132.2890625,
				97626.921875
			],
			"min":[
				-146432.734375,
				0,
				-97374.9140625
			],
			"type":"VEC3"
		},
		{
			"bufferView":1,
			"componentType":5126,
			"count":21395,
			"type":"VEC3"
		},
		{
			"bufferView":2,
			"componentType":5126,
			"count":21395,
			"type":"VEC2"
		},
		{
			"bufferView":3,
			"componentType":5126,
			"count":21395,
			"type":"VEC2"
		},
		{
			"bufferView":4,
			"componentType":5126,
			"count":21395,
			"type":"VEC2"
		},
		{
			"bufferView":5,
			"componentType":5123,
			"count":61884,
			"type":"SCALAR"
		}
	],
	"bufferViews":[
		{
			"buffer":0,
			"byteLength":256740,
			"byteOffset":0,
			"target":34962
		},
		{
			"buffer":0,
			"byteLength":256740,
			"byteOffset":256740,
			"target":34962
		},
		{
			"buffer":0,
			"byteLength":171160,
			"byteOffset":513480,
			"target":34962
		},
		{
			"buffer":0,
			"byteLength":171160,
			"byteOffset":684640,
			"target":34962
		},
		{
			"buffer":0,
			"byteLength":171160,
			"byteOffset":855800,
			"target":34962
		},
		{
			"buffer":0,
			"byteLength":123768,
			"byteOffset":1026960,
			"target":34963
		}
	],
	"samplers":[
		{
			"magFilter":9729,
			"minFilter":9987
		}
	],
	"buffers":[
		{
			"byteLength":1150728,
			"uri":"scene.bin"
		}
	]
}
